<svg xmlns="http://www.w3.org/2000/svg" xml:space="preserve" style="fill-rule:evenodd;clip-rule:evenodd;stroke-linejoin:round;stroke-miterlimit:2" viewBox="0 0 104 50"><path d="m0 27.912.024-6.598 2.049.172v-.001l-2.049-.172c1.127-.213 2.925-.169 3.898-.8.731-.475.711-1.669.967-2.421.4-1.18.842-2.356 1.417-3.466.343-.663.981-1.386.494-2.141l-.001.001-1.965-2.938 4.582-4.667 2.048.172.001-.001c.537.379 1.32 1.229 2.107 1.74.534-.231 1.057-.607 1.484-.833 1.135-.6 2.598-1.196 3.765-1.526.719-.204 1.343-.269 1.518-1.147l.605-3.277.013.001h.06l-.036-.009.216.008c2.748-.005 5.486-.059 8.227.169h.025V.18h.001v.002h-.001c.186 1.052.08 3.172.97 3.933.822.701 2.18 1.154 3.197 1.598.668.29 1.668.782 2.574 1.114l-.045-.02 2.747-1.926 2.048.172.002-.002 4.548 4.666-.002.002h.003c-.622.919-2.096 2.32-2.17 3.477-.015.237.032.496.12.765.275.84.94 1.787 1.295 2.518.04.081.076.161.107.237l-2.5 1.148v.002l-2.006.959-.004-.009-1.784-.233c-1.813-4.644-5.704-8.085-10.273-9.387-4.889-.729-9.736.951-13.086 4.57-3.518 3.8-4.861 9.179-3.594 14.387.588 2.411 1.722 4.655 3.282 6.486a14.515 14.515 0 0 0 6.201 4.292c.022.009 1.79.771 4.399.874a15.19 15.19 0 0 0 6.975-2.52c.376-.254.593-.457.945-.742l.132-.108h.001l-8.514-8.734a5.573 5.573 0 0 1-1.681-.199l.008-.001a5.777 5.777 0 0 1-1.82-.873 5.76 5.76 0 0 0 1.812.874c-3.828.375-7.06-3.201-6.326-7.146h-.001l.091-.388 2.046.171h.001l.002.001v.001l2.75 2.819 1.778-.485.886-3.328-3.313-3.4h.001c1.754-.437 4.121-.059 4.335.028 3.378.475 5.818 3.973 4.872 7.549l.005.001c5.173 5.303 10.343 10.61 15.532 15.899h-.005.005l-5.197 5.291-2.535-1.786c-.092-.064-.191-.144-.295-.227.104.083.203.163.296.228l2.536 1.786-2.05-.171c-.968-.682-1.977-1.634-3.04-2.219.435-.152.858-.243 1.224-.2a1.004 1.004 0 0 1-.001-.001c-.366-.043-.789.048-1.225.2l.002.001c-.78.273-1.6.744-2.205.994-.943.389-2.729.788-3.314 1.681-.284.432-.285 1.151-.374 1.633l-.546 2.955c-1.549 0-3.095.02-4.639-.001h-1.817l-.009-.047.009.049-2.05-.172c-.239-1.348.192-3.22-.748-4.212-.669-.705-.926-.759-1.686-1.04-1.221-.452-2.383-.929-3.533-1.537a6.506 6.506 0 0 1-.304-.175c.228-.161.469-.297.71-.325.063-.007.128-.012.195-.014-.066 0-.131.004-.195.011-.244.028-.486.164-.713.326l.003.002c-.228.162-.443.35-.628.48l-2.544 1.782h.001-.001l-2.049-.171h-.001l.001-.001-2.274-2.333-2.273-2.333 2.05.172 3.615 3.71.001-.001-3.617-3.711v.001l-2.05-.172C5.45 38.604 6.472 37.492 7 36.312c.381-.85-.057-1.311-.481-2.083a20.655 20.655 0 0 1-1.615-3.809c-.214-.688-.272-1.613-1.121-1.792l.001.001L0 27.912Zm26.62-.496-.001-.001h-.002l.003.001Zm-3.836 21.801a9.172 9.172 0 0 0-.029-.162l.029.162Zm17.493-30.55Zm10.59 9.379V15.992h9.712c.424 0 .815.106 1.172.318.357.212.642.494.854.846.212.351.318.739.318 1.163v7.4c0 .425-.106.812-.318 1.164a2.434 2.434 0 0 1-.854.845 2.257 2.257 0 0 1-1.172.318h-9.712Zm2.394-2.224h7.217a.22.22 0 0 0 .15-.058.185.185 0 0 0 .067-.143v-7.199a.188.188 0 0 0-.067-.143.221.221 0 0 0-.15-.058h-7.217a.195.195 0 0 0-.143.058.193.193 0 0 0-.058.143v7.199c0 .056.019.104.058.143a.195.195 0 0 0 .143.058Zm11.57 2.226V15.992h11.102v2.228h-8.874v2.679h7.133v2.243h-7.133v2.679h8.874v2.227H64.831Zm12.842-12.055h9.243c.424 0 .812.106 1.164.318.351.212.633.494.845.846.212.351.318.739.318 1.163v2.361c0 .145-.011.285-.034.419a1.557 1.557 0 0 1-.116.385c.189.257.342.524.46.803.117.279.176.558.176.837v2.594c0 .425-.106.812-.317 1.164a2.437 2.437 0 0 1-.855.845 2.254 2.254 0 0 1-1.172.318h-9.712V15.993Zm2.411 4.806h6.732c.056 0 .1-.019.134-.058a.214.214 0 0 0 .049-.143v-2.176a.218.218 0 0 0-.049-.143.168.168 0 0 0-.134-.058h-6.732a.192.192 0 0 0-.142.058.194.194 0 0 0-.059.143v2.176c0 .056.02.104.059.143a.192.192 0 0 0 .142.058Zm0 5.023h7.2a.22.22 0 0 0 .15-.058.185.185 0 0 0 .067-.143v-2.395a.185.185 0 0 0-.067-.142.222.222 0 0 0-.15-.059h-7.2a.193.193 0 0 0-.142.059.193.193 0 0 0-.059.142v2.395c0 .056.02.104.059.143a.192.192 0 0 0 .142.058Zm13.765 2.226c-.425 0-.812-.106-1.164-.318a2.45 2.45 0 0 1-.845-.845 2.21 2.21 0 0 1-.318-1.163v-7.401c0-.424.106-.812.318-1.163.212-.352.494-.634.845-.846.352-.212.74-.318 1.164-.318h7.4c.424 0 .812.106 1.163.318.352.212.634.494.846.846.212.351.318.739.318 1.163v7.401c0 .425-.106.812-.318 1.163a2.444 2.444 0 0 1-.846.845 2.207 2.207 0 0 1-1.163.318h-7.4Zm.083-2.226h7.199a.224.224 0 0 0 .151-.058.185.185 0 0 0 .067-.143v-7.199a.188.188 0 0 0-.067-.143.225.225 0 0 0-.151-.058h-7.199a.195.195 0 0 0-.143.058.193.193 0 0 0-.058.143v7.199c0 .056.019.104.058.143a.195.195 0 0 0 .143.058ZM53.68 37.263V31.51h-2.881v-.73h6.483v.73H54.41v5.753h-.73Zm4.295.001V30.78h5.915v.73h-5.187v2.143h4.169v.738h-4.169v2.143h5.187v.73h-5.915Zm7.959-.001a1.068 1.068 0 0 1-.936-.535 1.068 1.068 0 0 1-.144-.545v-4.321c0-.198.048-.38.144-.545a1.068 1.068 0 0 1 .936-.536h5.384v.73h-5.384a.337.337 0 0 0-.247.104.334.334 0 0 0-.104.248v4.321c0 .096.034.178.104.248a.336.336 0 0 0 .247.103h5.384v.73h-5.384v-.002Zm6.329 0V30.78h.73v2.873h5.177V30.78h.738v6.483h-.738V34.39h-5.177v2.873h-.73Zm7.654 0V30.78h.999l4.754 5.655V30.78h.729v6.483H85.4l-4.753-5.654v5.654h-.73Zm7.58 0V30.78h.738v6.483h-.738Zm2.917 0a1.073 1.073 0 0 1-1.08-1.08v-4.321a1.064 1.064 0 0 1 .535-.937c.165-.096.347-.144.545-.144h5.384v.73h-5.384a.34.34 0 0 0-.248.104.338.338 0 0 0-.104.248v4.321c0 .096.035.178.104.248a.338.338 0 0 0 .248.103h5.384v.73h-5.384v-.002Zm7.356 0a1.065 1.065 0 0 1-.936-.535 1.058 1.058 0 0 1-.144-.545v-.252h.73v.252c0 .096.034.178.103.247.07.07.152.104.248.104h4.321a.334.334 0 0 0 .248-.104.337.337 0 0 0 .104-.247v-1.45a.324.324 0 0 0-.104-.243.346.346 0 0 0-.248-.1h-4.321c-.198 0-.379-.049-.545-.148a1.101 1.101 0 0 1-.391-.391 1.04 1.04 0 0 1-.144-.541v-1.45c0-.197.048-.379.144-.544a1.068 1.068 0 0 1 .936-.536h4.321a1.075 1.075 0 0 1 1.08 1.08v.252h-.729v-.252a.337.337 0 0 0-.104-.247.338.338 0 0 0-.248-.104H97.77a.341.341 0 0 0-.248.104.336.336 0 0 0-.103.247v1.45c0 .096.034.178.103.244.07.065.152.099.248.099h4.321c.198 0 .38.05.545.148.166.1.295.229.392.391.096.163.143.343.143.541v1.45a1.067 1.067 0 0 1-1.08 1.08H97.77Z" style="fill:#00243b"/></svg>