<svg xmlns="http://www.w3.org/2000/svg" xml:space="preserve" style="fill-rule:evenodd;clip-rule:evenodd;stroke-linejoin:round;stroke-miterlimit:2" viewBox="0 0 80 42"><path d="M68.21 27.534c-3.037-1.381-8.642-4.269-15.276-3.469-5.626.678-8.816 1.929-14.525 3.612-1.917.565-8.974.337-11.136.266.498-.816 9.077-5.602 10.675-6.419 3.042-1.553 7.673-3.625 11.641-4.34 2.003-.361 10.734-1.71 26.018 4.861-1.47 3.013-4.761 4.463-7.397 5.489Zm-.938-24.746c-1.997-.759-9.765-1.369-9.996-1.397-1.876-.226-6.691.624-7.952.883-2.485.51-5.072 1.335-7.342 2.179C31.14 8.487 26.93 12.077 17.256 17.514c-3.332 1.872-9.356 4.869-13.777 5.153-1.794-2.711-2.987-4.815-2.972-8.84 6.564-.852 8.846-.879 15.26-3.412C27.692 5.706 38.603 1.073 51.723.14c1.453-.104 4.436-.237 6.572-.035 2.682.255 6.779 1.263 8.977 2.683Zm-60.851 0c.601-.527 1.198-1.42 1.968-1.459.326.274 8.792.494 9.522.283-.906.861-10.092 1.197-11.49 1.176ZM4.247 33.894c.213-.244.394-.413.538-.505a.806.806 0 0 1 .431-.137c.225 0 .421.085.588.252a.825.825 0 0 1 .252.598.977.977 0 0 1-.116.448c-.076.152-.196.31-.357.475l-2.019 2.101 2.503 2.72c.154.17.271.335.352.495a.959.959 0 0 1 .121.43.816.816 0 0 1-.265.602.831.831 0 0 1-.596.259.817.817 0 0 1-.423-.115c-.133-.077-.327-.256-.586-.538l-2.801-3.093v2.422c0 .448-.077.78-.231.998-.154.217-.388.326-.704.326-.315 0-.549-.109-.703-.326-.154-.218-.231-.55-.231-.998v-5.756c0-.446.077-.779.231-1 .154-.219.388-.328.703-.328.316 0 .55.109.704.328.154.221.231.554.231 1v2.028l2.378-2.686Zm6.25-.567c.442 0 .775.073.996.218.221.144.332.365.332.661 0 .29-.109.505-.329.65-.219.142-.553.213-.999.213H8.976v1.465h1.313c.446 0 .779.071 1 .213.219.145.329.362.329.654 0 .294-.11.511-.329.652-.221.14-.554.211-1 .211H8.976v2.044c0 .448-.077.78-.231.998-.153.217-.388.326-.704.326-.315 0-.549-.109-.703-.326-.153-.218-.231-.55-.231-.998V34.64c0-.499.096-.844.287-1.03.192-.188.527-.283 1.001-.283h2.102Zm5.848 8.444c-1.205 0-2.174-.398-2.911-1.192-.736-.794-1.103-1.842-1.103-3.145 0-1.273.38-2.315 1.142-3.124.763-.81 1.726-1.213 2.895-1.213.686 0 1.267.131 1.742.394.475.263.711.569.711.919a.84.84 0 0 1-.236.59.74.74 0 0 1-.558.254c-.119 0-.363-.054-.729-.162-.367-.107-.672-.161-.921-.161-.611 0-1.101.23-1.466.69-.367.461-.55 1.08-.55 1.859 0 .761.186 1.367.561 1.811.373.446.877.669 1.511.669.294 0 .627-.071 1.004-.214.375-.142.623-.213.742-.213.192 0 .365.083.519.248a.812.812 0 0 1 .231.569c0 .387-.248.721-.746 1.002-.498.279-1.109.419-1.838.419Zm8.134-6.702h-.688c-.45 0-.785-.071-1.004-.213-.217-.145-.327-.36-.327-.65 0-.296.11-.517.331-.661.219-.145.552-.218 1-.218h3.249c.442 0 .773.073.994.218.221.144.332.365.332.661 0 .29-.109.505-.329.65-.219.142-.552.213-.997.213h-.693v5.239c0 .448-.076.78-.23.998-.154.217-.389.326-.704.326-.315 0-.55-.109-.703-.326-.154-.218-.231-.55-.231-.998v-5.239Zm3.981 2.365c0-1.296.371-2.342 1.111-3.14.742-.798 1.714-1.197 2.915-1.197 1.205 0 2.18.399 2.922 1.199.744.8 1.115 1.846 1.115 3.138 0 1.299-.371 2.347-1.111 3.143-.742.796-1.717 1.194-2.926 1.194s-2.182-.398-2.92-1.194c-.737-.796-1.106-1.844-1.106-3.143Zm2.03.023c0 .765.183 1.376.546 1.836.366.459.848.69 1.45.69.601 0 1.084-.231 1.449-.69.364-.46.546-1.071.546-1.836 0-.792-.18-1.421-.54-1.886-.361-.465-.846-.698-1.455-.698-.609 0-1.094.233-1.455.698-.36.465-.541 1.094-.541 1.886Zm8.949 2.851c0 .448-.077.78-.23.998-.154.217-.389.326-.704.326-.315 0-.55-.109-.704-.326-.153-.218-.23-.55-.23-.998v-5.823c0-.421.071-.735.213-.94.142-.206.362-.31.654-.31.186 0 .357.046.509.138.152.091.312.247.481.464l3.449 4.556v-3.841c0-.446.077-.779.231-1 .153-.219.388-.328.703-.328.315 0 .55.109.704.328.153.221.231.554.231 1v5.965c0 .396-.07.689-.208.879-.14.188-.356.282-.648.282a.992.992 0 0 1-.546-.161 2.184 2.184 0 0 1-.523-.515l-3.382-4.468v3.774Zm12.089-1.974h-.66c-.451 0-.782-.071-.993-.212-.214-.14-.319-.358-.319-.654 0-.296.107-.517.321-.661.213-.144.544-.215.991-.215h1.373c.466 0 .8.098 1.002.292.202.196.303.515.303.957 0 1.167-.351 2.115-1.055 2.84-.704.727-1.628 1.09-2.772 1.09-1.152 0-2.094-.404-2.826-1.211-.733-.808-1.098-1.854-1.098-3.138 0-1.325.375-2.38 1.123-3.162.75-.783 1.755-1.175 3.02-1.175.838 0 1.549.173 2.138.517.586.346.88.742.88 1.188a.893.893 0 0 1-.236.614.73.73 0 0 1-.558.265c-.138 0-.45-.133-.93-.398-.481-.265-.933-.398-1.357-.398-.635 0-1.137.225-1.506.673-.371.448-.555 1.063-.555 1.842 0 .792.186 1.422.557 1.891.373.469.871.704 1.494.704.496 0 .894-.15 1.196-.448.3-.298.455-.698.467-1.201Zm6.39-5.007c.442 0 .775.073.996.218.221.144.333.365.333.661 0 .29-.11.505-.329.65-.219.142-.554.213-1 .213h-1.521v1.465h1.313c.447 0 .779.071 1 .213.219.145.329.362.329.654 0 .294-.11.511-.329.652-.221.14-.553.211-1 .211h-1.313v1.534h1.577c.451 0 .786.072 1.003.214.218.144.327.359.327.647 0 .295-.109.512-.327.656-.217.142-.552.214-1.003.214h-2.178c-.485 0-.817-.083-.996-.248-.181-.166-.271-.475-.271-.931v-5.71c0-.499.096-.844.286-1.03.193-.188.527-.283 1.002-.283h2.101Zm4.303 4.961v2.018c0 .448-.077.78-.231 1-.154.217-.388.326-.704.326-.315 0-.55-.109-.703-.326-.154-.22-.231-.552-.231-1V34.64c0-.499.096-.844.287-1.03.192-.188.526-.283 1.001-.283h1.455c.973 0 1.738.231 2.294.691.555.459.834 1.084.834 1.872 0 .584-.173 1.075-.521 1.467-.348.392-.826.64-1.44.746l1.477 1.64c.186.205.325.398.417.576.09.179.137.342.137.493a.85.85 0 0 1-.254.625.86.86 0 0 1-.635.253.838.838 0 0 1-.475-.152c-.151-.1-.326-.273-.526-.515l-2.182-2.735Zm0-1.246h.863c.379 0 .673-.089.88-.266.206-.177.31-.427.31-.749 0-.312-.102-.554-.304-.725-.204-.171-.492-.256-.863-.256h-.886v1.996Zm5.019-2.49c0-.446.077-.781.231-1 .154-.219.388-.328.703-.328.316 0 .55.109.704.328.154.219.231.554.231 1v5.246h1.578c.45 0 .784.072 1.002.214.217.144.326.359.326.647 0 .295-.109.512-.326.656-.218.142-.552.214-1.002.214h-2.18c-.484 0-.817-.083-.996-.248-.18-.166-.271-.475-.271-.931v-5.798Zm4.503 2.882c0-1.296.371-2.342 1.11-3.14.743-.798 1.714-1.197 2.915-1.197 1.205 0 2.18.399 2.922 1.199.744.8 1.115 1.846 1.115 3.138 0 1.299-.371 2.347-1.111 3.143-.742.796-1.717 1.194-2.926 1.194s-2.182-.398-2.92-1.194c-.736-.796-1.105-1.844-1.105-3.143Zm2.03.023c0 .765.182 1.376.546 1.836.365.459.847.69 1.449.69.602 0 1.084-.231 1.45-.69.363-.46.546-1.071.546-1.836 0-.792-.181-1.421-.541-1.886-.361-.465-.846-.698-1.455-.698-.609 0-1.094.233-1.455.698-.36.465-.54 1.094-.54 1.886Zm-25.718-9.441c.995-.53 2.967-.765 4.317-.791 1.536-.03 2.967.276 4.15.801l-8.467-.01Zm8.961-13.551c-3.162-.089-7.051.196-10.24.74-6.446 1.102-11.598 3.725-16.711 6.557-2.799 1.54-6.279 3.278-9.602 4.345-2.647.85-9.237 2.399-11.458.5.36-.293 2.399-1.005 2.99-1.285.998-.475 1.842-.907 2.866-1.429 1.88-.959 3.704-2.103 5.42-3.183 3.591-2.259 6.764-4.502 10.263-6.808 1.705-1.124 3.399-2.263 5.23-3.371 1.657-1.003 3.552-2.188 5.465-3.005 2.91-1.242 5.74-2.602 10.615-3.2C65.747 2.62 75.637 7.685 76.583 7.691c2.95 4.083 1.194 11.316.925 11.651-5.576-2.15-12.201-4.642-20.492-4.877ZM2.529 7.901c.006-.947 1.916-3.043 2.601-3.775.781-.835.795-.272 3.191-.226 7.42.144 12.513-1.945 18.32-2.524 1.619-.161 8.777-.434 9.87.062-7.269.198-26.689 7.414-33.982 6.463Z" style="fill:#00243b"/><path d="M64.358.015c7.733 0 14.002 6.269 14.002 14.002 0 7.733-6.269 14.002-14.002 14.002-7.733 0-14.001-6.269-14.001-14.002 0-7.733 6.268-14.002 14.001-14.002" style="fill:#fff"/><path d="M61.037 24.001c.776.067 5.95.483 6.188.679l.853 2.579c-.108.097.121.066-.366.177-2.109.775-5.345.448-7.622-.27-.778-.244-1.352-.578-2.046-.821l.006-1.8 2.987-.544Zm13.354-2.637 2.694-5.235-1.033-4.141-4.27-.643-1.882 5.329.774 3.846 3.717.844Zm2.865-5.035-2.642 5.12-.141 2.017c.599-.615 1.203-1.295 1.777-2.233.319-.523.732-1.324.965-1.928.358-.733.754-2.05.811-3.013l-.77.037Zm-8.261-13.06-.119 4.037.843.979 2.15 2.8 4.255.639.743-3.357c.039-.181-4.166-4.661-4.838-5.26l-3.034.162Zm-.267.012-3.664-1.913-5.625 2.129-.577 3.43c.184.139.131.066.304.182l.009.006 4.329 1.737 4.472-1.51.571-.19c.133-1.327.14-2.531.181-3.871m-5.352 5.87L58.95 7.304c-.639-.01-.636.234-2.043 1.362-.522.419-1.67 1.259-2.097 1.788l.642 6.186c.055.226.183.227.676.344l3.995 1.603.791-1.01 2.482-2.446-.02-5.98Zm-11.972.71 1.26-.977c.041-.052.08-.109.118-.173l2.514-5.008c-1.3.777-3.576 4.198-4.007 6.093l.115.065Zm.499-.165-.469.363c-.194.288-.25.059-.432.644-.584 1.88-.475 6.922.654 8.457l1.955.015c.428-.44 1.025-1.433 1.37-1.983.112-.175.184-.285.228-.376l-.653-6.291c-.597-.403-1.152-1.059-1.728-1.371l-.925.542Zm11.566 5.686 6.136 1.369.86 3.795-3.175 3.844-6.165-.576-.486-2.66-.45-2.366 1.142-1.185 2.138-2.221Zm-5.676 9.119-.011 1.606c-2.172-.752-5.439-4.576-6.026-6.664l1.909-.004 4.128 5.062Zm19.04-16.53-4.951-5.424c1.399.489 4.444 3.834 4.951 5.424M55.895 3.208c3.115-2.2 5.164-2.985 8.923-2.984l.192.991-5.679 2.037c-.777.279-2.009.017-3.436-.044m.169-.474a13.346 13.346 0 0 0-2.47 2.36c-3.677 4.571-4.196 10.665-1.445 15.808.972 1.817 3.047 4.012 4.834 5.068 3.558 2.102 7.386 2.649 11.434 1.499 4.462-1.268 8.1-4.924 9.412-9.354 1.701-5.746-.365-10.762-3.408-13.881-1.488-1.525-3.354-2.785-5.815-3.571C64.441-.669 59.58.11 56.064 2.734" style="fill:#00243b"/></svg>