<svg xmlns="http://www.w3.org/2000/svg" xml:space="preserve" style="fill-rule:evenodd;clip-rule:evenodd;stroke-linejoin:round;stroke-miterlimit:2" viewBox="0 0 119 31"><path d="M113.815 8.573c.072-.09.139-.169.199-.237a.134.134 0 0 1-.099-.153.133.133 0 0 1 .16-.098l.027.005.091-.441c.014-.07.099-.111.188-.092l.024.005.087.018.071.014.218-.683a.255.255 0 0 1-.057-.037c-.011-.011-.016-.021-.015-.03l.001-.001c.06-.287.005-.784-.273-.899l-.029-.009c-.337-.091-1.756.107-1.943.086h-.001l-.008-.001-.028-.007a.246.246 0 0 1-.134-.076c-.042-.05-.053-.126-.014-.239.048-.138.953-.455 1.783-.7.24-.07.475-.135.68-.188.183-.046.343-.083.464-.106.544-.102 1.533-.047 2.12.11.194.052.344.115.419.187a.459.459 0 0 1 .114.25l.001.003.29.06a.148.148 0 0 1 .045-.073l.773.153-.058.69-.751.068a.297.297 0 0 1-.031-.086l-.284.027-.009.084c-.117 0-.22.012-.323.039.099.073.178.17.179.296.001.171.02.295.071.559.086.441.186.958.793 1.459.138.114.14.296-.02.296a.304.304 0 0 1-.079-.011l-.03-.01a2.018 2.018 0 0 1-.622-.36l-1.109.028-.03.148.027.006a.133.133 0 0 1 .107.154.134.134 0 0 1-.16.099l-.031-.007c.027.04.052.084.071.131.279-.03.646-.053.924.013a.703.703 0 0 1 .264.115c.256.195.18.678-.014.963.332.302.173 1.093-.468 1.279a1.907 1.907 0 0 1-.188.041c.151.15.135.688-.212.959-.122.095-.29.132-.467.136a1.722 1.722 0 0 1-.203-.007c.224.238.55.571.91 1.272.736 1.435-.312 6.454-1.396 7.381-.467.398-4.425-.425-4.733-.971-.183-.324-.355-2.271.492-6.384.579-2.812 1.597-4.443 2.226-5.228Zm2.947-1.73a.515.515 0 0 1 .039.004l-.028-.041a.4.4 0 0 0-.011.037Zm-.612 4.581.025.001-.02-.009-.005.008Zm-62.271 6.288c-.594 1.711-1.361 3.274-2.067 3.274v.072h-.119c-1.463 0-2.158-1.871-2.422-4.148-.791 2.206-1.942 4.172-3.477 4.148-3.476-.024-2.565-10.382-1.966-12.013 0 0 1.87.024 2.613 1.151 0 0-.958 8.776 0 8.776.6 0 1.871-2.158 2.71-4.556 0-2.398.312-4.676.576-5.371 0 0 1.87.024 2.637 1.151 0 0-.647 5.803-.36 7.96.604-.415 1.245-1.626 1.727-2.768.003-2.696.506-5.495.791-6.271 0 0 1.87.024 2.613 1.127 0 0-.623 5.755-.359 7.937.375-.275.764-.843 1.12-1.503.426-.92.881-2.099 1.301-3.272a3.77 3.77 0 0 0 .025-.117l.018-.002c.859-2.414 1.564-4.77 1.564-4.77 2.662 0 2.71 1.679 2.71 1.679-.744.48.359 1.99 1.846 5.251 1.511 3.237-1.63 5.515-3.501 5.611-1.846.072-2.877-.744-2.877-2.302 0-2.038 1.87-1.223 1.87-1.223.576.312-1.294 2.086.815 2.086 1.823-.096 1.895-4.34-.767-7.001l-1.859 3.788c-.627 2.142-1.628 4.647-2.505 4.676h-.048c-1.575.082-2.322-1.407-2.609-3.37Zm27.681-.808c-.605 1.974-1.495 4.084-2.317 4.178-2.422.024-3.117-1.319-3.117-9.448 0-8.128 1.463-9.327 1.463-9.327a2.318 2.318 0 0 1 2.373 1.751c-1.151 6.929-1.175 11.677-1.007 14.386.025-.024.048-.024.096-.048.92-.134 2.038-2.655 2.549-4.165.24-2.667 1.009-4.036 2.055-4.706.623-.432 1.271-.408 1.271-.408 3.188-.288 4.004 2.158 4.244 4.172.119 1.103.095 3.021-.432 4.7.963-.123 1.838-2.432 2.356-3.97.643-4.858 3.494-4.902 3.494-4.902 5.132.384 3.789 5.683 1.535 6.786-1.103.551-2.014.407-2.685.144-.144 1.822.863 3.093 1.846 3.093 1.819 0 3.677-2.784 4.569-4.518.005-.177.011-.278.011-.278s.192-4.915 3.788-5.251c0 0 1.151-.12 2.254 1.175.048-.791.12-1.175.12-1.175 2.757-.048 2.83 1.511 2.83 1.511-.073.167-.552 3.284-.408 6.641.072 1.583.36 3.669-.072 5.635.575.408.911.887 1.031 1.151.288.672-.408.36-.408.36a2.72 2.72 0 0 0-.863-.648c-.384 1.151-1.127 2.23-2.374 3.045-4.028 2.614-6.066-2.925-1.678-4.387a5.933 5.933 0 0 1 1.582-.312c.192-1.079.288-2.35.216-3.836a23.34 23.34 0 0 1-.072-1.775c-.839 2.182-2.134 4.796-3.668 4.652-1.475-.148-2.013-2.251-2.2-4.077-1.152 3.021-3.476 4.029-4.586 4.029-1.189 0-3.814-.841-4.297-4.304-.527 1.426-1.42 2.81-2.872 2.529-.552 1.007-1.367 1.703-2.542 1.799-2.837.212-3.879-2.212-4.085-4.202Zm3.533 2.811c.552-.024 1.031-.599 1.391-1.51-.815-.791-1.534-1.918.432-2.614.071-.671.12-1.415.096-2.206-.048-1.87-.48-2.518-1.007-2.685-2.59-.048-2.158 9.111-.912 9.015Zm8.489-4.724c0 .048 0 .072-.024.121.551.119 1.247-.025 2.014-.864 1.726-1.894.24-2.925.24-2.925s-1.439-.312-2.23 3.668Zm9.974 3.549c1.056-1.462 1.798-2.997 2.206-4.148v-1.534c-.408-1.103-1.271-3.021-1.966-2.111-.959 1.271-1.966 10.167-.24 7.793Zm-.287 6.881c.24.864 1.318.193 2.013-1.893-1.246.359-2.181 1.199-2.013 1.893ZM54.4 5.4a2.61 2.61 0 1 1 5.041-1.35A2.61 2.61 0 0 1 54.4 5.4Zm3.913-2.655c-.554-.276-.959-.066-.969.145-.02.224.303.434.715.784.407.342.776.651.937.361.167-.281-.122-1.02-.683-1.29Zm-2.041-.074c-.005.158.193.166.372.172.181.003.321-.007.423-.098.1-.081.07-.282-.207-.36-.278-.078-.589.127-.588.286Zm2.496-1.613a1.057 1.057 0 1 1 2.114-.002 1.057 1.057 0 0 1-2.114.002Zm1.81-.63c-.188-.166-.369-.126-.395-.044-.031.085.074.201.198.381.124.177.236.337.329.24.095-.092.059-.412-.132-.577Zm-.791-.243c-.019.062.058.086.127.107.071.02.127.031.176.006.048-.021.057-.103-.043-.163-.101-.059-.244-.012-.26.05Zm1.076 3.404a.653.653 0 1 1 1.263-.336.653.653 0 0 1-1.263.336Zm.979-.664c-.139-.069-.24-.016-.243.037-.005.056.076.108.179.196.102.085.194.162.234.09.042-.071-.03-.255-.17-.323Zm-.51-.018c-.002.039.047.041.092.043.046.001.081-.002.106-.025.025-.02.018-.07-.052-.09-.069-.019-.147.032-.146.072ZM6.981 2.14c4.604 0 10.095 3.86 8.848 10.957-1.247 7.098-6.882 9.807-9.831 9.831-2.925.024-4.7-1.534-4.652-2.614.024-1.055.48-.479.48-.479 1.559 1.799 3.74 1.799 5.994.479-.191-.023-.479-.047-.839-.095-1.391-.144-1.391-.984-1.391-.984-1.175-8.08.192-14.026.192-14.026.048-.216.384-.36 1.607 0 1.246.336 1.127 1.223 1.127 1.223-.696 4.675-.36 12.995-.264 13.475a.181.181 0 0 1 .024.096c.096-.048.168-.096.264-.168 2.47-1.774 4.196-4.628 4.579-9.255.384-4.628-4.172-8.201-8.008-6.331-3.813 1.895-3.237 4.652-3.237 4.652.168.288-.096.288-.096.288C-.236 8.853-.38 5.904.555 4.513 1.274 3.41 2.401 2.14 6.981 2.14Zm19.662 11.389c-.216 5.803-3.789 7.553-5.251 7.553-1.391 0-4.748-1.151-4.34-6.306.431-5.611 3.573-5.659 3.573-5.659 5.131.384 3.788 5.683 1.534 6.786-1.103.551-2.014.407-2.685.144-.145 1.822.863 3.093 1.845 3.093 2.447 0 4.964-5.036 5.108-5.779 0 0 .168-.12.216.168Zm-7.026 1.462c0 .048 0 .072-.024.121.552.119 1.247-.025 2.014-.864 1.727-1.894.24-2.925.24-2.925s-1.438-.312-2.23 3.668Zm16.874-2.206c1.199 2.902 4.796 10.455 9.926 10.167 0 0-.311 1.559-2.349 1.559-3.692 0-6.93-3.237-9.039-10.167-.049.072-.121.12-.169.192-.671 4.124-1.414 7.792-1.726 8.176-.216.264-.456.384-1.391 0-.959-.384-.767-1.247-.767-1.247 1.367-6.809 1.894-16.664 1.894-16.664-4.315 3.021-4.196 6.906-3.644 7.553.575.647.335.743.335.743-8.032-4.532 4.484-10.981 4.484-10.981 1.559 0 1.99 1.054 1.99 1.054.145 1.463-.215 4.892-.743 8.44 2.638-3.86 6.834-9.494 8.92-9.494 0 0 1.894.359 2.205 1.87 0 0-3.932 2.589-9.926 8.799Zm35.295-3.692c2.254 0 3.98 3.189 3.837 6.474-.169 3.285-2.47 5.707-4.748 5.515-.959-.072-1.535-.744-1.895-1.487-.143 2.614-.167 4.892.024 5.659.456 1.798-1.151.911-1.151.911-2.469-1.87-.599-16.976-.599-16.976.024 0 .048 0 .072-.024.024-.024.024-.048.024-.072 0 0 1.87.024 2.638 1.151 0 0-.048.36-.096.959.527-1.223 1.175-2.11 1.894-2.11Zm-.959 10.311c1.702-.048 2.709-6.043 1.367-7.697-.888-1.079-2.111 1.894-2.926 4.34.024 1.055.216 3.404 1.559 3.357Zm41.521-11.661c-2.027.24-2.221.434-2.461 2.461-.24-2.027-.435-2.221-2.461-2.461 2.026-.24 2.221-.434 2.461-2.461.24 2.027.434 2.221 2.461 2.461Zm-.787 17.389c-1.014.12-1.111.217-1.231 1.23-.12-1.013-.217-1.11-1.23-1.23 1.013-.12 1.11-.217 1.23-1.23.12 1.013.217 1.11 1.231 1.23Zm-86.624.058c-.331-.296-.543-.341-.762-.341-.506 0-.887.228-.887.587 0 .839 2.085.504 2.085 1.766 0 .725-.68 1.545-1.723 1.545-.705 0-1.192-.379-1.616-.889-.131-.158.175-.397.4-.542.405.41.76.674 1.173.674.405 0 .799-.252.799-.656 0-.933-2.129-.776-2.129-1.905 0-.731.899-1.273 1.873-1.273.281 0 .637.045 1.105.265.012.334-.156.914-.318.769Zm2.315.202c.594 0 .962.277 1.136.674.163.309-.555.448-.699.429-.062-.158-.144-.447-.443-.447-.462 0-.549.693-.549 1.003 0 .58.312.908.643.908.231 0 .468-.164.68-.41.156.101.606.466.462.611-.35.378-.799.561-1.186.561-.83 0-1.516-.825-1.516-1.809 0-.934.617-1.52 1.472-1.52Zm1.755-1.293c0-.195.499-.214.873-.189-.031.36-.037 1.085-.018 2.012.268-.284.631-.53 1.074-.53.649 0 .905.523.98 1.431.05.561.05 1.52.012 1.646-.087.284-.848.322-.86.17-.013-.605-.007-1.091-.013-1.419-.013-.599-.075-1.053-.387-1.053-.25 0-.556.29-.781.7l.068 1.703c.006.138-.923.221-.941-.051-.125-1.847-.007-2.699-.007-4.42Zm3.577 2.983c0-.896.618-1.69 1.523-1.69.943 0 1.53.87 1.53 1.765 0 .896-.587 1.571-1.467 1.571-.906 0-1.586-.706-1.586-1.646Zm.917.025c0 .379.181.681.55.681.382 0 .712-.321.712-.756 0-.354-.218-.814-.637-.814-.45 0-.625.523-.625.889Zm2.698-.025c0-.896.618-1.69 1.523-1.69.943 0 1.529.87 1.529 1.765 0 .896-.586 1.571-1.466 1.571-.906 0-1.586-.706-1.586-1.646Zm.917.025c0 .379.181.681.55.681.381 0 .712-.321.712-.756 0-.354-.218-.814-.637-.814-.45 0-.625.523-.625.889Zm2.792-1.557c0-.195.536-.032.91-.006 0 .119.007.226.007.327.268-.258.636-.485 1.118-.504.687-.025.949.41 1.011 1.153.062.732-.049 1.974-.049 1.974-.026.246-.588.145-.931.145-.013-.605.018-.965.012-1.311-.012-.581-.131-1.098-.468-1.098-.219 0-.487.221-.7.593-.006.53-.018 1.035.044 1.81-.362.006-.849.107-.942-.05.012-1.167.031-2.221-.012-3.033Zm3.789.063c.118-.126.842-.221.842-.101v.258c.206-.245.494-.441.937-.441.387 0 .662.158.811.567.219-.334.525-.655 1.068-.655.512 0 .924.29.992 1.115.057.65-.049 2.22-.049 2.22 0 .208-.681.189-.892.063-.013-.605-.032-1.091-.038-1.375-.013-.643-.068-1.154-.381-1.154-.212 0-.394.24-.568.568.037.586.03 1.57.03 1.57-.049.246-.71.297-.829.17-.012-.605-.025-.87-.031-1.027-.012-.77-.194-1.218-.444-1.218-.187 0-.406.247-.575.669.019.542.05 1.046.05 1.759 0 .107-.929.146-.917-.018.075-1.054-.006-1.811-.006-2.97Zm6.618-.221c.337 0 .568.126.73.309l.006-.164c.125-.126.431-.163.811-.05.038 1.224-.044 1.869.075 3.152-.125.082-.967.297-.948.006v-.138a1.23 1.23 0 0 1-.7.214c-.861-.006-1.298-.743-1.298-1.658 0-1.003.531-1.671 1.324-1.671Zm.006 2.643c.237 0 .487-.152.687-.341l.025-1.155c-.088-.17-.375-.385-.65-.385-.524 0-.587.783-.587 1.079 0 .593.256.802.525.802Zm3.596-2.643c.337 0 .568.126.731.309l.006-.164c.124-.126.43-.163.811-.05.037 1.224-.044 1.869.074 3.152-.124.082-.966.297-.948.006v-.138a1.23 1.23 0 0 1-.7.214c-.861-.006-1.297-.743-1.297-1.658 0-1.003.529-1.671 1.323-1.671Zm.006 2.643c.237 0 .487-.152.687-.341l.025-1.155c-.087-.17-.375-.385-.65-.385-.525 0-.587.783-.587 1.079 0 .593.256.802.525.802Zm2.416-3.936c0-.195.606-.189.868-.057-.063.687-.051 1.615-.013 2.535.393-.315.63-.593.992-1.059.1-.133.756.094.856.195a14.48 14.48 0 0 1-1.08 1.047c.474.694.705 1.022 1.342 1.677.069.07-.768.385-.905.202-.518-.599-.618-.902-.936-1.437l-.226.189.075 1.248c-.342.006-.898.17-.879-.12-.062-1.762-.15-2.74-.094-4.42Zm5.238.706c-.474.07-.474-.681 0-.593.449.089.355.543 0 .593Zm-.362.763c.037-.189.798-.151.818-.032.037 1.224.093 1.874.13 3.097-.012.107-.86.101-.941-.05.012-1.186.024-1.911-.007-3.015Zm1.698-.018c0-.195.537-.032.911-.006 0 .119.006.226.006.327.269-.258.637-.485 1.118-.504.687-.025.949.41 1.011 1.153.063.732-.049 1.974-.049 1.974-.025.246-.587.145-.931.145-.012-.605.019-.965.013-1.311-.013-.581-.132-1.098-.469-1.098-.218 0-.487.221-.699.593-.006.53-.019 1.035.044 1.81-.362.006-.848.107-.942-.05.013-1.167.031-2.221-.013-3.033Zm8.922-1.451c0-.195.436-.17.811-.145-.032 1.243.143 3.256.137 4.685-.319.089-.917.195-.899-.101v-.063a1.196 1.196 0 0 1-.743.246c-.949 0-1.285-.901-1.285-1.757 0-1.061.511-1.572 1.304-1.572.281 0 .506.063.687.171l-.012-1.464Zm-.494 3.803c.15 0 .35-.069.531-.233l-.012-1.288a.767.767 0 0 0-.538-.246c-.425 0-.706.404-.706.827 0 .467.344.94.725.94Zm4.114-.669c-.356.082-.73.164-1.086.189.025.297.149.556.568.556.331 0 .593-.164.805-.411.094-.101.543.348.399.493-.33.422-.611.661-1.129.661-1.005 0-1.567-.907-1.567-1.847 0-.978.612-1.475 1.555-1.475.767 0 1.048.334 1.092.8.056.574-.25.946-.637 1.034Zm-.405-1.079c-.35 0-.562.335-.65.733a4.69 4.69 0 0 0 1.012-.196c0-.316-.082-.537-.362-.537Zm5.574-1.809c.206 0 .918.12.811.272-.567.775-.955 1.21-1.404 1.69.656.857.912 1.242 1.723 2.099-.275.189-.787.428-.974.171-.468-.65-.78-1.104-1.223-1.766-.101.1-.201.208-.306.327.006.473.031.965.068 1.501-.355-.006-.873.145-.848-.063-.107-1.69-.006-2.68 0-4.307.374-.07.804-.221.842-.044-.038.65-.062 1.255-.069 1.885.512-.53.912-.902 1.38-1.765Zm3.202 2.888c-.356.082-.731.164-1.087.189.025.297.15.556.569.556.331 0 .593-.164.805-.411.093-.101.543.348.399.493-.33.422-.611.661-1.13.661-1.005 0-1.566-.907-1.566-1.847 0-.978.611-1.475 1.554-1.475.768 0 1.049.334 1.092.8.056.574-.249.946-.636 1.034Zm-.405-1.079c-.35 0-.563.335-.65.733a4.69 4.69 0 0 0 1.012-.196c0-.316-.082-.537-.362-.537Zm1.748-.541c.118-.126.841-.221.841-.101v.258c.207-.245.494-.441.938-.441.386 0 .661.158.81.567.219-.334.525-.655 1.069-.655.511 0 .923.29.991 1.115.057.65-.049 2.22-.049 2.22 0 .208-.68.189-.892.063-.012-.605-.031-1.091-.038-1.375-.012-.643-.068-1.154-.381-1.154-.212 0-.393.24-.568.568.037.586.031 1.57.031 1.57-.05.246-.711.297-.83.17-.012-.605-.025-.87-.031-1.027-.012-.77-.193-1.218-.443-1.218-.188 0-.407.247-.575.669.019.542.05 1.046.05 1.759 0 .107-.93.146-.917-.018.075-1.054-.006-1.811-.006-2.97Zm6.31-.126c-.006.05 0 .094-.006.138.219-.151.443-.233.712-.233.756 0 1.405.598 1.405 1.69 0 1.06-.618 1.639-1.461 1.639-.275 0-.512-.063-.706-.164.013.429.037.89.082 1.407.024.353-.781.296-.949.183.038-1.224.038-3.5.075-4.723.056-.069.855-.133.848.063Zm.569.724a.89.89 0 0 0-.606.259c-.012.416-.025.826-.025 1.243.094.164.256.353.537.353.544 0 .787-.732.768-1.167-.018-.467-.343-.688-.674-.688Zm4.114 1.022c-.356.082-.73.164-1.087.189.025.297.151.556.569.556.331 0 .593-.164.805-.411.094-.101.543.348.4.493-.331.422-.612.661-1.13.661-1.005 0-1.567-.907-1.567-1.847 0-.978.611-1.475 1.554-1.475.768 0 1.049.334 1.092.8.057.574-.249.946-.636 1.034Zm-.405-1.079c-.35 0-.562.335-.65.733a4.69 4.69 0 0 0 1.012-.196c0-.316-.081-.537-.362-.537Zm1.748-.604c0-.195.536-.032.911-.006 0 .119.006.226.006.327.268-.258.637-.485 1.118-.504.686-.025.949.41 1.01 1.153.063.732-.049 1.974-.049 1.974-.025.246-.587.145-.93.145-.012-.605.018-.965.012-1.311-.012-.581-.131-1.098-.468-1.098-.219 0-.488.221-.699.593-.007.53-.019 1.035.043 1.81-.362.006-.848.107-.942-.05.013-1.167.031-2.221-.012-3.033ZM27.092 11.767c-1.419-.584-1.618-.528-2.516.715.584-1.418.527-1.617-.715-2.516 1.418.584 1.617.527 2.516-.715-.585 1.418-.528 1.617.715 2.516Z" style="fill:#00243b"/></svg>