<svg xmlns="http://www.w3.org/2000/svg" xml:space="preserve" style="fill-rule:evenodd;clip-rule:evenodd;stroke-linejoin:round;stroke-miterlimit:2" viewBox="0 0 88 50"><path d="M62.212 2.804c.217-.845.306-1.72.264-2.59.496.7.999 1.392 1.38 2.158.38.766.641 1.605.631 2.457-.008.743-.17 1.473-.199 2.214.339.809.734 1.595 1.178 2.355a8.294 8.294 0 0 1-.041-.568 1.59 1.59 0 0 1-.315-1.141c.078-.613.506-1.126.701-1.714.257.47.379.99.343 1.523-.034.475-.249.931-.522 1.332.009.329.033.658.084.983.072.116.144.231.218.346.186.005.371.027.549.082.199-.241.431-.462.677-.666-.004-.125-.016-.249-.014-.374-.095-.216-.192-.43-.25-.662a2.701 2.701 0 0 1-.086-.775c.029-.746.4-1.44.843-2.048.444-.608.969-1.159 1.375-1.791-.189.653-.116 1.348-.076 2.026.041.679.039 1.391-.28 1.995-.175.329-.432.605-.696.868-.13.129-.265.255-.385.391-.021.023-.083.083-.144.147.913-.658 2.044-1.037 3.134-.857 1.52.249 2.863 1.345 3.39 2.762a3.33 3.33 0 0 1 2.687 1.511c.315.485.488 1.052.521 1.626.107-.209.227-.41.384-.588.451-.516 1.125-.786 1.783-1.005.658-.218 1.343-.413 1.891-.829-.446.605-.771 1.288-1.18 1.919-.409.63-.927 1.227-1.622 1.535a2.915 2.915 0 0 1-.767.213 4.095 4.095 0 0 1-.663.022c-.025.073-.047.147-.078.219.281.333.445.732.518 1.151.142-.043.284-.086.423-.137.277-.398.628-.764 1.065-.973a2.918 2.918 0 0 1 1.571-.262c-.483.398-.808.979-1.36 1.279a1.684 1.684 0 0 1-1.199.144c-.154.057-.312.104-.469.152v.023c.866.111 1.736.173 2.608.175.683-.303 1.309-.72 2.003-1.004.803-.328 1.695-.407 2.564-.35.869.058 1.713.253 2.562.44a9.222 9.222 0 0 0-2.353 1.212c-.325.232-.633.486-.974.692-.342.207-.723.368-1.124.389-.544.03-1.068-.196-1.537-.467-.415-.238-.81-.513-1.246-.71a20.824 20.824 0 0 1-1.249-.052c.225.186.453.389.683.607a3.667 3.667 0 0 1 2.11 1.202c.338.397.582.861.853 1.305.27.443.578.88 1.006 1.183-.616-.054-1.224-.133-1.786-.393-.577-.264-1.112-.629-1.53-1.104-.503-.571-.811-1.311-.812-2.062a13.341 13.341 0 0 0-.867-.758 20.49 20.49 0 0 1-.897-.099c.007.333-.041.669-.135.991.424.358.775.8 1.022 1.292.367.736.499 1.559.719 2.35a12.562 12.562 0 0 1-1.646-.789c-.499-.281-.959-.639-1.305-1.088a4.12 4.12 0 0 1-.722.477c-.866.448-1.867.613-2.846.575-.782.77-2.335 1.671-3.796 1.41-1.753-.313-3.12-1.707-3.511-3.394-1.068-.437-1.885-1.417-2.108-2.529-.223-1.111.195-2.345 1.014-3.145-.432-.509-.575-1.222-.423-1.863a3.998 3.998 0 0 1-.499-.072c-.603-.133-1.156-.438-1.644-.811a12.155 12.155 0 0 1-1.366-1.197c.831-.097 1.661-.287 2.495-.23a4.25 4.25 0 0 1 2.07.71c.077.052.15.111.223.169.212-.084.435-.136.662-.155a20.782 20.782 0 0 1-.899-1.559 13.358 13.358 0 0 0-1.035-.496c-.712.281-1.528.279-2.257.038a4.586 4.586 0 0 1-1.622-.972c-.457-.413-.76-.935-1.043-1.472.448.274.978.389 1.499.467.523.079 1.054.127 1.557.284.792.247 1.48.778 1.931 1.461.286.125.558.252.815.384-.184-.37-.361-.743-.521-1.122-.346-.313-.747-.565-1.122-.846-.433-.323-.844-.714-1.021-1.219-.129-.371-.121-.778-.053-1.165.067-.387.191-.762.289-1.143Zm7.279 6.474c-.745.113-1.345.725-1.586 1.424a2.99 2.99 0 0 1 1.679-.931 3.032 3.032 0 0 1 1.908.288c-.445-.596-1.254-.893-2.001-.781Zm-1.877 11.544c.396.211.846.321 1.294.321.339 0 .678-.063.993-.193-1.416-.113-2.718-1.16-3.264-2.443a2.565 2.565 0 0 1-1.713-1.349 2.472 2.472 0 0 1 .009-2.15c-.606.635-.92 1.6-.613 2.416.306.815 1.106 1.432 1.988 1.532.135.764.611 1.494 1.306 1.866Zm5.409-5.179c.19.917-.155 1.921-.871 2.541 1.083-.362 1.796-1.565 1.579-2.664-.193-.976-1.312-2.063-2.398-1.877.78.531 1.482.997 1.69 2Zm-3.184 1.446a.62.62 0 0 0 .223.042.644.644 0 0 0 .492-.232c.3.212.762.164 1.009-.106.246-.27.173-.685-.076-.954a.668.668 0 0 0 .227-.741.724.724 0 0 0-.663-.458.904.904 0 0 0-.943-.49.888.888 0 0 0-.721.771c-.399.001-.675.426-.681.817-.006.39.348.752.747.764a.573.573 0 0 0 .386.587Zm-4.177-5.121c-.387.36-.484.962-.205 1.407.159-.904.903-1.684 1.813-1.901-.532-.031-1.222.134-1.608.494ZM65.955 14c-.59.807-.572 2.029.14 2.734-.201-.199.054-1.128.122-1.36.134-.456.356-.888.651-1.265.247-.319.567-.642.932-.844-.011.022-.029.041-.039.063-.23.528-.075 1.075.281 1.531.052-.58.37-1.133.849-1.48a2.179 2.179 0 0 1 1.694-.359c-.345-.465-.892-.74-1.475-.675a1.7 1.7 0 0 0-1.033.531c-.812.042-1.703.552-2.122 1.124Zm2.982 5.049h.013c.034 0 .063-.003.098-.003.991.983 2.527 1.382 3.815.792 1.45-.664 2.544-2.338 2.017-3.94-.442 2.821-3.542 3.282-4.91 3.026.551-.174.934-.541 1.286-1.165-.843.58-1.696.547-2.765.085-.785-.339-1.487-1.567-1.483-2.541a2.446 2.446 0 0 0-.122 2.409c.386.751 1.194 1.277 2.051 1.337Zm6.617-3.17c.321.371.525.866.515 1.353.271-.411.288-.906-.077-1.241.205-.305.293-.683.244-1.045-.049-.363-.2-.535-.479-.778a2.115 2.115 0 0 1-.203 1.711Zm-1.745-2.523c.343.465.666.95.858 1.493.229-.334.278-.766.196-1.161-.081-.395-.283-.757-.52-1.087-.458-.637-1.081-1.188-1.838-1.43-.735-.236-1.617-.178-2.192.361 1.119.02 2.573.567 3.496 1.824ZM48.843 46.063c1.404 1.754 2.617 2.631 3.64 2.631 1.666 0 3.464-1.33 5.393-3.99 1.404-1.959 2.777-4.429 4.122-7.411l1.666-4.034-6.445 5.042c-1.988 1.55-3.581 2.325-4.78 2.325-.643 0-1.155-.22-1.535-.658a2.222 2.222 0 0 1-.57-1.491c0-1.257 1.082-3.325 3.245-6.205 2.163-2.879 3.742-4.319 4.736-4.319.994 0 1.491.336 1.491 1.009 0 .263-1.294 1.776-3.881 4.538-2.587 2.763-3.881 4.626-3.881 5.591 0 .38.249.57.746.57.935 0 2.813-1.096 5.635-3.289 2.82-2.192 4.947-4.004 6.379-5.437.322-.38.775-.95 1.36-1.71.555-.643 1.169-.965 1.842-.965.672 0 1.008.322 1.008.965 0 .117-.658 1.155-1.973 3.113-1.316 1.959-2.003 2.996-2.061 3.113-.906 1.754-2.295 4.312-4.166 7.674-2.835 4.56-5.671 6.84-8.506 6.84-.936 0-1.755-.402-2.456-1.206-.702-.803-1.038-1.702-1.009-2.696Zm20.496-5.025h-.492c-.534 0-.955-.277-1.263-.831a2.375 2.375 0 0 1-.369-1.293c0-1.231.898-2.96 2.693-5.186 1.796-2.226 3.248-3.34 4.356-3.34 1.046 0 1.569.554 1.569 1.662 0 .288-.051.657-.153 1.108.02.062.215.093.584.093.37 0 .934-.195 1.693-.585-.02.349-.831.852-2.431 1.508.02.082.03.175.03.277 0 .718-.687 1.919-2.062 3.601-1.621 1.991-3.006 2.986-4.155 2.986Zm4.217-8.187c-.698 0-1.688.821-2.97 2.462-1.283 1.642-1.924 2.852-1.924 3.632 0 .78.246 1.169.739 1.169.882 0 2-.8 3.354-2.4 1.355-1.601 2.032-2.75 2.032-3.447-.328-.185-.739-.657-1.231-1.416ZM33.88 39.157c-.849.819-1.838 1.229-2.968 1.229-.775 0-1.434-.252-1.977-.756-.543-.504-.814-1.192-.814-2.064 0-.873.208-1.798.625-2.777a10.61 10.61 0 0 1 1.701-2.733c.717-.843 1.541-1.459 2.471-1.846a3.205 3.205 0 0 1 1.28-.291c.407 0 .785.116 1.134.349.329.271.494.572.494.901 0 1.163-.698 2.278-2.093 3.344-.427.329-1.028.625-1.803.887-.776.261-1.367.392-1.774.392-.271.659-.407 1.396-.407 2.21 0 .543.121.974.364 1.294.242.32.586.479 1.032.479 1.764 0 3.363-1.657 4.797-4.971a.975.975 0 0 1 .188-.3c1.04-2.066 1.753-3.285 2.138-3.655.233-.232.553-.349.96-.349.077 0 .276.029.596.088.32.058.557.067.712.029-.717.387-1.89 2.209-3.518 5.466.911-1.125 1.74-2.021 2.486-2.69.746-.668 1.643-1.289 2.69-1.861 1.046-.571 1.812-.857 2.296-.857.117 0 .223.019.32.058-2.384 4.187-3.576 6.92-3.576 8.199 0 .504.184.756.553.756.988 0 2.316-1.676 3.983-5.03.116-.271.232-.378.349-.32.116.058.174.136.174.233a.742.742 0 0 1-.116.349c-1.028 2.074-1.895 3.504-2.602 4.288-.708.785-1.416 1.178-2.123 1.178-.708 0-1.245-.271-1.614-.814-.193-.252-.29-.596-.29-1.032 0-.436.097-.964.29-1.585.194-.62.727-1.628 1.6-3.024.213-.349.319-.625.319-.828 0-.204-.164-.306-.494-.306-.329 0-.959.436-1.89 1.309-1.396 1.279-2.743 3.198-4.041 5.757-.117.194-.248.315-.393.363-.145.049-.431.082-.858.102-.426.019-.707.068-.843.145.147-.293.361-.732.642-1.316Zm1.161-8.017c0-.388-.155-.582-.465-.582-.543 0-1.367.669-2.472 2.007a14.947 14.947 0 0 0-1.744 2.733c.329 0 .809-.117 1.439-.349a5.568 5.568 0 0 0 1.643-.93c1.066-.912 1.599-1.871 1.599-2.879ZM28.029 2.617c0 1.686-.548 3.45-1.643 5.291-1.095 1.842-2.607 3.446-4.536 4.813-1.928 1.366-3.92 2.224-5.974 2.573-1.183 2.384-2.036 4.051-2.559 5.001l-.611.988c3.838.95 7.017 2.394 9.537 4.333 1.279.988 2.142 2.2 2.588 3.634.232.737.349 1.367.349 1.89 0 .524-.102.964-.305 1.323-.204.359-.442.606-.713.742-.271.135-.465.203-.581.203-.117 0-.175-.048-.175-.145 0-.097.111-.383.334-.858.223-.475.335-1.032.335-1.672 0-.64-.136-1.347-.407-2.122-.272-.776-.776-1.488-1.512-2.137-.737-.65-1.759-1.26-3.068-1.832-1.308-.572-2.442-.979-3.402-1.221-.959-.243-2.243-.519-3.852-.829-1.648 2.307-3.363 3.887-5.147 4.739-1.066.524-2.011.785-2.834.785-.824 0-1.556-.164-2.196-.494C.553 27.079 0 26.256 0 25.15c0-1.104.727-2.073 2.181-2.907 1.647-.969 3.876-1.454 6.687-1.454 1.008 0 1.919.078 2.733.233.873-1.357 1.89-3.227 3.053-5.612h-.32c-1.221 0-2.355-.203-3.401-.61-1.047-.407-1.881-.96-2.501-1.658-.814-.911-1.221-1.938-1.221-3.082 0-.601.15-1.25.45-1.948.301-.698.97-1.405 2.007-2.122 1.037-.717 2.35-1.26 3.94-1.629.252-.058.465-.087.639-.087.175 0 .281.049.32.146.039.097-.039.184-.233.261a3.02 3.02 0 0 1-.668.175 5.369 5.369 0 0 0-2.327.843c-1.24.795-2.102 2.016-2.587 3.663a3.872 3.872 0 0 0-.175 1.12c0 .359.068.79.204 1.294.136.504.426 1.022.872 1.555.446.533 1.052.906 1.817 1.12.766.213 1.435.319 2.006.319.573 0 1.101-.029 1.585-.087l2.472-6.222c1.705-4.381 3.741-7.075 6.106-8.083A4.808 4.808 0 0 1 25.456 0c.591 0 1.153.189 1.686.567.533.378.819.838.858 1.381.019.233.029.456.029.669ZM10.7 22.418c-.95-.214-1.929-.32-2.937-.32-1.008 0-2.045.145-3.111.436-2.229.581-3.537 1.405-3.925 2.471a1.482 1.482 0 0 0-.117.553c0 .504.277.916.829 1.236a3.575 3.575 0 0 0 1.818.479c.91 0 1.899-.252 2.965-.756 1.609-.775 3.102-2.142 4.478-4.099ZM26.808 2.646c0-.737-.339-1.105-1.018-1.105-.988 0-2.19.863-3.605 2.588-1.105 1.376-2.166 3.038-3.184 4.986a189.38 189.38 0 0 0-2.719 5.394c2.695-.601 5.122-2.079 7.284-4.434 2.161-2.355 3.242-4.832 3.242-7.429Zm22.785 19.018c.353-1.048 1.133-2.202 2.338-3.463 1.706-1.783 3.238-2.675 4.594-2.675.446 0 .81.122 1.091.364.281.242.421.538.421.887 0 1.085-.818 2.122-2.456 3.111-1.638.988-2.971 1.483-3.998 1.483-.155 0-.291-.02-.408-.058a3.367 3.367 0 0 0-.436 1.657c0 1.008.48 1.512 1.44 1.512.959 0 2.205-.649 3.736-1.948 1.182-.95 2.19-1.958 3.024-3.024.174-.233.325-.349.451-.349.125 0 .189.058.189.174 0 .117-.078.282-.233.495a17.886 17.886 0 0 1-3.78 3.663c-1.473 1.067-2.723 1.6-3.751 1.6a1.83 1.83 0 0 1-.581-.088c-1.241-.349-1.861-1.047-1.861-2.093 0-.125.007-.252.022-.38l-.08.075c-.097.087-.277.252-.538.494a6.97 6.97 0 0 1-.596.509c-.136.097-.33.242-.582.436a3.494 3.494 0 0 1-.668.421c-.194.088-.417.189-.669.306-.407.174-.892.261-1.454.261-.988 0-1.483-.639-1.483-1.919 0-1.046.572-2.495 1.716-4.346 1.143-1.852 2.064-2.787 2.762-2.806.194 0 .412.077.654.232.242.155.363.31.363.465a8.306 8.306 0 0 1-.348.451c-.136.165-.282.344-.437.538-.155.194-.368.47-.639.829l-.785 1.032c-1.454 1.88-2.181 3.174-2.181 3.882 0 .707.242 1.061.727 1.061.407 0 .959-.223 1.657-.669 1.074-.665 2-1.371 2.779-2.12Zm7.718-4.945c0-.233-.248-.349-.742-.349s-1.197.378-2.108 1.134c-1.221 1.007-2.171 2.064-2.849 3.169.116.039.242.058.378.058.736 0 1.72-.393 2.951-1.178 1.231-.784 2.001-1.642 2.311-2.573a.712.712 0 0 0 .059-.261Zm-14.393-3.431c.582 0 1.076.193 1.483.581.407.388.611.931.611 1.628 0 1.532-1.27 3.451-3.809 5.757-2.152 1.939-3.887 3.121-5.205 3.548-.213 0-.494-.117-.843-.349-.349-.233-.523-.446-.523-.64 0-.426.465-1.871 1.395-4.332.931-2.462 1.57-3.838 1.919-4.129.078-.078.204-.116.378-.116.175 0 .359.092.552.276a.98.98 0 0 1 .32.654c0 .02-.479 1.144-1.439 3.373-.959 2.229-1.41 3.557-1.352 3.983.834-.251 2.321-1.269 4.463-3.052 2.142-1.784 3.213-3.383 3.213-4.798 0-.853-.426-1.473-1.279-1.861-.136-.058-.204-.145-.204-.262 0-.174.107-.261.32-.261Zm-11.574 3.547c-.349.349-.844 1.139-1.483 2.37-.64 1.23-1.022 2.151-1.149 2.762-.126.61-.188 1.105-.188 1.483 0 .378.145.567.436.567.368 0 .823-.34 1.366-1.018.795-.989 1.58-2.278 2.355-3.867.078-.175.165-.271.262-.291.155-.058.232 0 .232.175a.91.91 0 0 1-.087.348c-1.783 3.606-3.285 5.409-4.507 5.409-.562 0-1.017-.272-1.366-.815-.174-.29-.262-.678-.262-1.163 0-.484.097-1.075.291-1.773-1.551 2.5-2.888 3.751-4.013 3.751-.31 0-.591-.097-.843-.291-.581-.407-.872-1.105-.872-2.094 0-1.899.824-3.828 2.471-5.786.931-1.085 2.075-1.793 3.431-2.122a4.125 4.125 0 0 1 1.047-.146c.892 0 1.648.31 2.268.931.194.213.252.417.175.611-.078.193-.243.271-.495.232-.213-.698-.678-1.047-1.395-1.047-.834 0-1.861.659-3.082 1.978a15.877 15.877 0 0 0-1.949 2.733c-.756 1.26-1.133 2.267-1.133 3.023 0 .756.242 1.134.727 1.134 1.163 0 2.684-1.783 4.564-5.35.369-.717.679-1.206.931-1.468.252-.261.572-.392.959-.392.078 0 .277.029.596.087.32.058.558.068.713.029Zm18.727-3.983c.291 0 .567.091.829.276.261.184.392.402.392.654s-.121.47-.363.654a1.294 1.294 0 0 1-.8.276c-.291 0-.558-.106-.8-.319-.242-.214-.363-.456-.363-.727 0-.543.368-.814 1.105-.814Z" style="fill:#00243b"/></svg>