<svg xmlns="http://www.w3.org/2000/svg" xml:space="preserve" style="fill-rule:evenodd;clip-rule:evenodd;stroke-linejoin:round;stroke-miterlimit:2" viewBox="0 0 122 38"><path d="M3.246 20.816H.406A.406.406 0 0 1 0 20.41v-.487c0-.224.182-.406.406-.406h2.84v-4.138c0-.224.181-.405.405-.405h.227c.225 0 .406.181.406.405v4.138h.666v-5.355c0-.224.181-.405.405-.405h.357c.224 0 .406.181.406.405v5.355H6.9v-6.896c0-.224.182-.406.406-.406h.402c.224 0 .406.182.406.406v6.896h8.659a6.537 6.537 0 0 0-.178 1.299H8.114v6.734a.406.406 0 0 1-.406.406h-.402a.406.406 0 0 1-.406-.406v-6.734h-.782v5.193a.405.405 0 0 1-.406.405h-.357a.405.405 0 0 1-.405-.405v-5.193h-.666v3.976a.405.405 0 0 1-.406.405h-.227a.405.405 0 0 1-.405-.405v-3.976Zm34.974 0h-8.588a6.537 6.537 0 0 0-.178-1.299h8.766v-6.896c0-.224.182-.406.406-.406h.402c.225 0 .406.182.406.406v6.896h.675v-5.355c0-.224.182-.405.406-.405h.357c.224 0 .406.181.406.405v5.355h.665v-4.138c0-.224.182-.405.406-.405h.227c.224 0 .406.181.406.405v4.138h2.84c.224 0 .405.182.405.406v.487a.405.405 0 0 1-.405.406h-2.84v3.976a.405.405 0 0 1-.406.405h-.227a.405.405 0 0 1-.406-.405v-3.976h-.665v5.193a.405.405 0 0 1-.406.405h-.357a.405.405 0 0 1-.406-.405v-5.193h-.675v6.734a.406.406 0 0 1-.406.406h-.402a.406.406 0 0 1-.406-.406v-6.734Zm-18.317-5.479a6.516 6.516 0 0 0-1.162.834l-1.163-2.828a.062.062 0 0 0-.021-.027l-1.558-1.07a.058.058 0 0 1-.006-.09l.943-.882a.059.059 0 0 1 .073-.005l1.709 1.175a.057.057 0 0 1 .021.025l1.164 2.868Zm-2.406 2.34-.602 1.303-3.124-2.744a.055.055 0 0 0-.076.001l-1.834 1.707c-.043.04-.112-.002-.096-.059l.703-2.394a.054.054 0 0 1 .016-.025l1.169-1.115a.058.058 0 0 1 .078-.002l3.766 3.328Zm-4.908 10.492a.057.057 0 0 1-.015.057l-1.034.989a.057.057 0 0 1-.095-.026l-1.007-3.404a.057.057 0 0 1 .021-.064l6.108-4.339c.024.521.111 1.028.253 1.51l-4.731 3.397a.06.06 0 0 0-.023.063l.523 1.817Zm2.546 8.585c.018.06-.06.102-.101.052l-2.096-2.593c-.004-.006-.007-.014-.01-.021l-.653-2.214a.06.06 0 0 1 .01-.053l5.579-6.941c.281.376.601.72.955 1.028l-4.992 6.253a.058.058 0 0 0-.011.054l1.319 4.435Zm6.788-5.496-2.342-2.099a.058.058 0 0 1-.015-.066l.863-2.049c.414.187.85.332 1.304.43l-.55 1.398a.055.055 0 0 0-.002.04l.835 2.283c.021.057-.048.104-.093.063Zm2.671-16.601a6.474 6.474 0 0 0-1.469-.167c-.505 0-.998.057-1.47.167-.192-.492-.439-1.406-.316-2.657.191-1.938 1.48-2.247 1.783-2.247.274 0 1.597.309 1.788 2.247.123 1.251-.124 2.165-.316 2.657Zm5.656-2.411-1.558 1.07a.052.052 0 0 0-.019.027l-1.165 2.828a6.516 6.516 0 0 0-1.162-.834l1.164-2.868a.057.057 0 0 1 .021-.025l1.711-1.175a.057.057 0 0 1 .072.005l.944.882a.058.058 0 0 1-.008.09Zm4.234 5.639c.016.057-.052.099-.094.059l-1.834-1.707a.057.057 0 0 0-.078-.001l-3.124 2.744a6.455 6.455 0 0 0-.602-1.303l3.766-3.328a.058.058 0 0 1 .078.002l1.17 1.115a.046.046 0 0 1 .015.025l.703 2.394Zm1.329 7.9-1.008 3.404a.058.058 0 0 1-.096.026l-1.032-.989a.054.054 0 0 1-.017-.057l.523-1.817a.058.058 0 0 0-.022-.063l-4.73-3.397c.14-.482.227-.989.251-1.51l6.109 4.339c.019.015.028.04.022.064Zm-1.838 6.193-.653 2.214a.06.06 0 0 1-.011.021l-2.096 2.593c-.039.05-.118.008-.1-.052l1.319-4.435a.06.06 0 0 0-.01-.054l-4.992-6.255c.352-.307.673-.652.953-1.026l5.579 6.941a.057.057 0 0 1 .011.053Zm-7.306-2.819-2.343 2.099c-.045.041-.114-.006-.093-.063l.835-2.283a.055.055 0 0 0-.002-.04l-.55-1.398c.454-.098.89-.243 1.304-.43l.863 2.05a.056.056 0 0 1-.014.065Zm1.728-8.102a5.279 5.279 0 0 1-5.272 5.272 5.277 5.277 0 0 1-5.271-5.272 5.276 5.276 0 0 1 5.271-5.271 5.278 5.278 0 0 1 5.272 5.271Zm13.773 5.912.176-.575 1.149.353-.176.574a21.14 21.14 0 0 1-6.511 9.885l-.457.39-.779-.915.457-.39a19.936 19.936 0 0 0 6.141-9.322ZM4.955 12.948l-.247.548-1.095-.493.246-.548C7.167 5.112 14.549 0 23.125 0c8.576 0 15.958 5.112 19.265 12.455l.247.548-1.096.493-.246-.548c-3.12-6.925-10.082-11.746-18.17-11.746-8.088 0-15.05 4.821-18.17 11.746Zm5.135 23.231.454.393-.787.908-.454-.393a21.138 21.138 0 0 1-6.372-9.766l-.176-.574 1.149-.353.176.575a19.93 19.93 0 0 0 6.01 9.21ZM53.63 9.522h3.107v10.02h5.517v2.663H53.63V9.522Zm2.325 10.611V10.114h-1.543v11.499l1.543-1.48Zm7.587-10.611h3.108v12.683h-3.108V9.522Zm2.325 7.567h-1.543v4.524h1.543v-4.524Zm1.796-7.567h3.234l2.558 6.109 2.557-6.109h3.234l-5.601 13.105h-.381L67.663 9.522Zm10.547.592h-1.627l-2.685 6.405.804 1.818 3.508-8.223Zm2.184-.592h3.107v12.683h-3.107V9.522Zm2.325 7.567h-1.543v4.524h1.543v-4.524Zm2.195-7.567h4.418c3.741 0 6.637 2.748 6.637 6.32 0 3.382-2.579 6.363-6.637 6.363h-4.418V9.522Zm2.325.592h-1.543v11.499h1.543V10.114Zm2.029 9.258c1.987 0 3.509-1.395 3.509-3.53 0-1.966-1.331-3.509-3.509-3.509h-1.247v7.039h1.247Zm8.198-9.85h3.086v7.948c0 1.691.803 2.283 1.881 2.283 1.184 0 1.924-.592 1.924-2.283V9.522h3.107v8.413c0 3.001-2.241 4.692-5.031 4.692-2.896 0-4.967-1.775-4.967-4.692V9.522Zm2.325.592h-1.543v4.502h1.543v-4.502Zm6.891 0h-1.564v4.502h1.564v-4.502Zm2.329-.592h2.896l3.234 6.849 3.255-6.849h2.854v12.683h-3.086v-5.644l-2.769 6.066h-.508l-2.769-6.108v5.686h-3.107V9.522Zm2.325 12.091V14.68l-1.543-3.467v10.4h1.543Zm6.828-6.701v-3.213l-2.579 5.517.697 1.691 1.882-3.995ZM54.195 27.133c0 .138.111.249.245.249.146 0 .237-.083.237-.206 0-.177-.233-.229-.427-.296-.399-.142-.62-.328-.62-.735 0-.419.36-.766.806-.766.525 0 .774.336.806.774h-.545c0-.134-.083-.245-.245-.245-.127 0-.249.075-.249.229 0 .178.217.21.419.269.422.126.62.363.62.734 0 .419-.356.767-.802.767-.517 0-.81-.348-.81-.774h.565Zm2.054-1.162h-.529v-.513h1.651v.513h-.537v1.857h-.585v-1.857Zm1.628-.513h.991c.51 0 .842.308.842.754 0 .415-.209.648-.561.735l.64.881h-.727l-.605-.885v.885h-.58v-2.37Zm1.047 1.027c.13 0 .217-.134.217-.273 0-.138-.103-.26-.233-.26h-.451v.533h.467Zm1.307-1.027H61.8v.513h-.988v.427h.912v.506h-.912v.426h1.031v.498h-1.612v-2.37Zm2.13 0h.612l.92 1.406v-1.406h.577v2.37h-.604l-.925-1.41v1.41h-.58v-2.37Zm3.997-.079c.439 0 .743.162.992.415l-.403.371a.875.875 0 0 0-.589-.237c-.422 0-.695.316-.695.715 0 .438.312.715.707.715.415 0 .616-.229.632-.458h-.675v-.502h1.303v.225c0 .699-.411 1.284-1.272 1.284-.75 0-1.283-.557-1.283-1.264s.533-1.264 1.283-1.264Zm2.11.592h-.529v-.513h1.651v.513h-.537v1.857h-.585v-1.857Zm1.628-.513h.58v.932h.929v-.932h.576v2.37h-.576v-.936h-.929v.936h-.58v-2.37Zm4.843.968v.45h-1.067v-.45h1.067Zm2.919-1.047c.45 0 .762.17 1.015.434l-.399.38a.88.88 0 0 0-.616-.265c-.423 0-.695.316-.695.715 0 .399.272.715.695.715a.88.88 0 0 0 .616-.265l.387.379a1.344 1.344 0 0 1-1.003.435c-.75 0-1.284-.557-1.284-1.264s.534-1.264 1.284-1.264Zm2.714 0c.747 0 1.276.557 1.276 1.264s-.529 1.264-1.276 1.264c-.75 0-1.276-.557-1.276-1.264s.526-1.264 1.276-1.264Zm0 1.979c.419 0 .688-.316.688-.715 0-.399-.269-.715-.688-.715-.423 0-.687.316-.687.715 0 .399.264.715.687.715Zm1.916-1.9h.541l.605 1.28.608-1.28h.533v2.37h-.576v-1.055l-.518 1.134h-.095l-.517-1.142v1.063h-.581v-2.37Zm2.904 0h.541l.604 1.28.609-1.28h.533v2.37h-.577v-1.055l-.517 1.134h-.095l-.518-1.142v1.063h-.58v-2.37Zm2.903 0h.577v1.485c0 .316.15.427.352.427.221 0 .359-.111.359-.427v-1.485h.581v1.572c0 .561-.419.877-.94.877-.542 0-.929-.332-.929-.877v-1.572Zm2.485 0h.612l.921 1.406v-1.406h.576v2.37h-.604l-.924-1.41v1.41h-.581v-2.37Zm3.306 0v2.37h-.58v-2.37h.58Zm1.036.513h-.53v-.513h1.651v.513h-.537v1.857h-.584v-1.857Zm2.346.711-.841-1.224h.656l.474.711.477-.711h.652l-.841 1.224v1.146h-.577v-1.146Zm3.998-.256v.45h-1.067v-.45h1.067Zm1.691-.968h.58v1.872h1.031v.498h-1.611v-2.37Zm2.71 0v2.37h-.581v-2.37h.581Zm.616 0h1.529v.513h-.948v.506h.873v.506h-.873v.845h-.581v-2.37Zm2.007 0h1.568v.513h-.987v.427h.912v.506h-.912v.426h1.031v.498h-1.612v-2.37Zm2.682 1.675c0 .138.111.249.245.249.146 0 .237-.083.237-.206 0-.177-.233-.229-.426-.296-.4-.142-.621-.328-.621-.735 0-.419.36-.766.806-.766.526 0 .774.336.806.774h-.545c0-.134-.083-.245-.245-.245-.126 0-.249.075-.249.229 0 .178.217.21.419.269.422.126.62.363.62.734 0 .419-.356.767-.802.767-.517 0-.81-.348-.81-.774h.565Zm2.054-1.162h-.529v-.513h1.651v.513h-.537v1.857h-.585v-1.857Zm2.347.711-.841-1.224h.655l.474.711.478-.711h.652l-.841 1.224v1.146h-.577v-1.146Zm1.936-1.224h.58v1.872h1.031v.498h-1.611v-2.37Zm2.129 0h1.568v.513h-.987v.427h.912v.506h-.912v.426h1.031v.498h-1.612v-2.37Z" style="fill:#00243b"/></svg>