<svg xmlns="http://www.w3.org/2000/svg" xml:space="preserve" style="fill-rule:evenodd;clip-rule:evenodd;stroke-linejoin:round;stroke-miterlimit:2" viewBox="0 0 84 44"><path d="M7.697 33.12c1.082 3.409 1.57 4.093 4.601 7.128-1.142-.617-4.114-2.84-4.975-3.801a7.09 7.09 0 0 1-.396.155c-.598.214-.858-.167-.904-.215 0-.044 0 0-.077-.212-.138-.215-.138-.474.046-.856.05-.113.103-.217.154-.31a19.591 19.591 0 0 1-1.919-3.215c-.248.053-.62.121-.994.147-.644 0-.767-.444-.767-.474-.045-.045-.045-.045-.091-.259-.046-.214.046-.474.306-.779.261-.337.552-.551.552-.551s.061-.066.145-.168a19.412 19.412 0 0 1-.801-3.165c-.167-.013-.294-.013-.294-.013s-.644 0-1.288-.168c-.598-.123-.643-.596-.643-.643.045-.045 0-.045.045-.259 0-.214.169-.428.522-.688.337-.214.69-.336.69-.336s.378-.268.717-.583a18.907 18.907 0 0 1 0-1.065c-.009-.514-.006-1.03.025-1.545-.286-.171-.712-.277-.712-.277s-.644-.214-1.196-.52c-.565-.35-.428-.809-.428-.809 0-.046 0-.046.076-.259.091-.168.306-.384.689-.52.399-.123.782-.123.782-.123s.758-.211 1.233-.559c.154-.683.339-1.357.566-2.019l-.036-.08c-.139-.307-.736-.689-.736-.689s-.553-.351-1.027-.81c-.429-.473-.169-.901-.169-.901.032-.045 0-.045.169-.214.123-.183.383-.26.767-.305.429 0 .827.091.827.091s.812 0 1.319-.214c.13-.045.241-.09.337-.139.234-.418.486-.823.749-1.222.026-.177.02-.319.001-.488-.045-.305-.521-.856-.521-.856s-.428-.474-.736-1.07c-.29-.565.046-.901.093-.901.046-.047 0-.047.215-.168.168-.138.428-.138.811-.046.43.122.782.305.782.305s.767.215 1.334.168c.272-.022.473-.056.648-.136.191-.188.386-.37.585-.55.232-.335.316-.508.316-.781.03-.335-.262-.978-.262-.978s-.26-.595-.382-1.237c-.138-.613.291-.826.337-.872.045 0 0 0 .214-.076.214-.046.476 0 .858.214.337.214.599.473.599.473s.689.428 1.255.551c.377.094.618.12.869.018.074-.041.15-.081.225-.121l.149-.111c.429-.29.551-.474.688-.765.124-.259 0-.993 0-.993s-.091-.641 0-1.283c.048-.642.522-.734.553-.734.046 0 0-.03.259-.03.216 0 .431.122.738.427.29.291.475.642.475.642s.505.596 1.026.856c.318.194.544.27.808.254.184-.042.369-.091.556-.128.425-.15.582-.284.737-.508.214-.214.306-.948.306-.948s.093-.641.352-1.237c.246-.611.721-.566.721-.566.047.046.047 0 .261.046.215.075.429.26.598.642.184.337.26.733.26.733s.353.72.736 1.147c.147.136.269.239.388.315.36.009.718.021 1.075.05.099.008.197.024.296.033.144-.037.253-.091.387-.184.261-.214.551-.856.551-.856s.307-.596.69-1.115c.398-.475.859-.292.859-.292.044.047.044 0 .214.123.231.137.353.351.445.779.031.382.031.765.031.765s.092.81.398 1.283c.036.079.073.148.109.212.613.183 1.218.388 1.811.63l.057-.017c.29-.091.767-.656.767-.656s.428-.505.996-.856c.506-.383.889-.078.889-.031 0 0 .046 0 .184.168.167.168.213.428.167.811a3.91 3.91 0 0 1-.167.779s-.119.714-.02 1.257c.063.038.126.071.186.109a19.68 19.68 0 0 1 1.791 1.273c.304-.103.664-.331.664-.331s.551-.383 1.164-.551c.598-.214.888.168.888.214 0 0 .048 0 .14.214.076.168.076.428-.092.81-.168.382-.384.688-.384.688s-.186.422-.301.87a18.978 18.978 0 0 1 1.761 2.179c.216-.045.395-.1.395-.1s.645-.168 1.288-.214c.643-.045.812.428.812.475l.046.214c.045.213-.046.473-.307.809-.26.305-.551.566-.551.566s-.567.596-.736 1.115a5.338 5.338 0 0 0-.101.28 18.407 18.407 0 0 0-3.073-3.007 19.158 19.158 0 0 0-7.185-2.438 19.318 19.318 0 0 0-10.954 1.803 19.184 19.184 0 0 0-8.276 7.742 19.23 19.23 0 0 0-2.562 9.176c.007.28.019.562.037.841.104 1.568.415 3.12.895 4.616Zm10.211 4.361c1.665 1.828 3.759 3.254 6.051 4.177a16.447 16.447 0 0 0 6.043 1.185 16.79 16.79 0 0 1-5.558.857 16.471 16.471 0 0 1-6.657-1.515 16.581 16.581 0 0 1-5.85-4.481c-2.544-3.043-3.926-7.026-3.83-10.993.069-4.71 2.287-9.329 5.888-12.359 3.062-2.606 7.092-4.039 11.111-3.944l.475.01a16.497 16.497 0 0 0-7.188 4.222 16.644 16.644 0 0 0-4.079 6.751 16.388 16.388 0 0 0-.71 6.029 16.574 16.574 0 0 0 4.304 10.061Zm20.33-5.139c1.185-1.228 2.08-2.71 2.71-4.291.018.658-.087 1.315-.197 1.962a12.937 12.937 0 0 1-4.429 7.554 12.866 12.866 0 0 1-5.658 2.72 12.782 12.782 0 0 1-6.038-.211c-2.857-.796-5.427-2.608-7.104-5.058a12.882 12.882 0 0 1-2.024-9.943c.202-1.002.547-1.968.964-2.898-.379 3.174.535 6.471 2.455 9.022a12.587 12.587 0 0 0 4.211 3.589 12.631 12.631 0 0 0 8.528 1.211 12.67 12.67 0 0 0 6.582-3.657Zm4.642 3.506v-2.011l5.297-3.252H42.88v-2.022h9.164v2.022l-5.296 3.252h5.296v2.011H42.88Zm33.392-2.627v.407l.022.148c.014.041.072.061.176.061h6.262v2.011h-7.197c-.3 0-.571-.073-.812-.22a2.257 2.257 0 0 1-.621-.555 2.588 2.588 0 0 1-.402-.747 2.459 2.459 0 0 1-.142-.808v-2.614c0-.265.047-.535.142-.814.095-.278.229-.529.402-.753.172-.223.379-.408.621-.554.241-.147.512-.22.812-.22h7.197v2.011H76.47c-.104 0-.158.027-.165.082l-.033.258v.286h4.471v2.021h-4.471Zm-23.349.297v-2.614c0-.265.047-.535.142-.814.096-.278.23-.529.402-.753.172-.223.379-.408.621-.554a1.53 1.53 0 0 1 .813-.22h5.229c.3 0 .572.073.814.22.241.146.448.331.621.554.172.224.303.475.395.753.092.279.138.549.138.814v2.614c0 .264-.046.534-.138.808a2.522 2.522 0 0 1-.395.747c-.173.223-.38.408-.621.555-.242.147-.514.22-.814.22h-5.229a1.53 1.53 0 0 1-.813-.22 2.257 2.257 0 0 1-.621-.555 2.637 2.637 0 0 1-.544-1.555Zm6.273-2.944h-3.362c-.102 0-.157.027-.164.082l-.033.258v2.692l.022.16c.014.048.073.071.175.071h3.362c.103 0 .162-.023.176-.071l.022-.16v-2.692l-.032-.258c-.007-.055-.063-.082-.166-.082Zm13.483 5.274h-3.462l-3.681-4.263v4.263h-2.56v-7.285h3.549l3.593 4.263v-4.263h2.561v7.285Zm-44.85-19.45c.342 0 .652.102.927.304.277.203.509.456.698.76.189.303.335.636.441.998.105.361.158.701.158 1.019v1.822c0 .453-.072.844-.217 1.172a2.434 2.434 0 0 1-.592.831c-.25.227-.549.405-.895.535a5.344 5.344 0 0 1-1.112.283h-5.04v-2.763h4.474l.151-.086c.057-.058.11-.128.158-.21.049-.082.09-.162.125-.239a.479.479 0 0 0 .053-.174v-.94a.369.369 0 0 0-.059-.173 1.166 1.166 0 0 0-.152-.203 1.2 1.2 0 0 0-.184-.166.293.293 0 0 0-.158-.065h-5.092v6.884h-3.08v-9.589h9.396Zm3.276 6.523v-3.442c0-.347.057-.704.171-1.07.114-.367.275-.696.481-.991a2.79 2.79 0 0 1 .744-.73c.289-.193.614-.29.973-.29h6.264c.36 0 .684.097.974.29.289.193.537.436.743.73.206.295.364.624.473.991.11.366.165.723.165 1.07v3.442c0 .347-.055.702-.165 1.063a3.42 3.42 0 0 1-.473.984 2.802 2.802 0 0 1-.743.73c-.29.193-.614.289-.974.289h-6.264c-.359 0-.684-.096-.973-.289a2.79 2.79 0 0 1-.744-.73 3.574 3.574 0 0 1-.481-.984 3.521 3.521 0 0 1-.171-1.063Zm7.514-3.875h-4.026c-.124 0-.189.035-.198.108l-.039.34v3.543c0 .077.008.147.026.21.018.062.087.094.211.094h4.026c.123 0 .194-.032.211-.094a.805.805 0 0 0 .026-.21v-3.543a27.04 27.04 0 0 0-.039-.34c-.009-.073-.075-.108-.198-.108Zm23.633 3.485v.535c0 .077.009.142.027.195.018.053.087.08.211.08h7.501v2.646h-8.62a1.72 1.72 0 0 1-.974-.289 2.787 2.787 0 0 1-.743-.73 3.546 3.546 0 0 1-.481-.984 3.521 3.521 0 0 1-.171-1.063v-3.442c0-.347.057-.704.171-1.07.114-.367.274-.696.481-.991.206-.294.453-.537.743-.73.29-.193.615-.29.974-.29h8.62v2.648H62.49c-.124 0-.189.035-.198.108l-.04.34v.376h5.357v2.661h-5.357Zm8.791-6.133h9.396c.342 0 .652.102.927.304.277.203.514.456.712.76.197.303.347.636.453.998.106.361.158.701.158 1.019 0 .444-.07.848-.21 1.215a3.01 3.01 0 0 1-1.474 1.634 3.574 3.574 0 0 1-1.119.347l-.026.13 3.158 3.182h-4.592l-3.58-3.688v-2.4h4.475c.096 0 .159-.051.19-.152a.93.93 0 0 0 .046-.268.542.542 0 0 0-.099-.296c-.065-.102-.142-.152-.23-.152h-5.106v6.956h-3.079v-9.589Zm-28.686 0h3.5l2.355 5.265.58-.651-2.053-4.599h3.132l2.329 5.033 2.513-5.048h3.5l-4.71 9.589h-2.751l-.487-1.272-.644 1.272H46.91l-4.553-9.589Z" style="fill:#00243b"/></svg>