<svg xmlns="http://www.w3.org/2000/svg" xml:space="preserve" style="fill-rule:evenodd;clip-rule:evenodd;stroke-linejoin:round;stroke-miterlimit:2" viewBox="0 0 87 38"><path d="M2.438 36.762c.016-.359.058-1.798.084-3.201.032-1.402.074-3.195.106-3.981.026-.785.063-2.251.084-3.253l.037-1.819-.311-.074C1.373 24.186.566 23.416.16 22.277c-.105-.29-.132-.49-.153-1.196-.016-.491-.005-1.023.027-1.276.153-1.103.78-2.769 1.539-4.071.253-.432 1.129-1.682 1.345-1.909l.132-.147.052-2.305c.09-4.26.116-4.74.253-4.782.048-.016.317-.053.591-.084.633-.069 1.656-.196 2.373-.29.306-.043.696-.09.87-.106.174-.016.543-.063.817-.105.274-.037.738-.101 1.028-.132.29-.037.886-.106 1.318-.164.438-.052 1.097-.137 1.472-.179.379-.042.827-.1 1.001-.126.18-.027.522-.069.765-.085l.443-.037-.037 1.234-.042 1.239.775.037c.749.037.886.053 1.608.211 1.566.338 3.116 1.181 4.166 2.257l.247.253.032-1.15c.021-.627.037-1.381.037-1.671 0-.29.021-.554.042-.585.021-.032.169-.074.327-.09s.67-.079 1.134-.137c.464-.058 1.139-.142 1.502-.185.364-.047.812-.105 1.002-.131.19-.032.475-.069.633-.085.285-.031.965-.111 2.135-.263.322-.043.733-.09.923-.106.638-.063 1.445-.232 1.925-.395.943-.327 2.499-.338 3.474-.032a8.6 8.6 0 0 1 1.756.849l.38.243.416-.338c1.593-1.292 3.465-2.041 5.727-2.273.959-.105 1.392-.105 2.272-.005 1.988.216 3.565.886 4.93 2.088.238.211.433.369.438.359.01-.011.1-.153.2-.311.675-1.034 1.904-2.062 3.238-2.716 1.376-.669 2.652-.954 5.747-1.292.585-.063 1.666-.2 2.109-.263.206-.032.654-.09 1.002-.132.801-.09 1.429-.169 2.162-.264.901-.121 1.856-.237 2.32-.29a95.72 95.72 0 0 0 1.028-.126c.337-.042.838-.095 1.123-.116l.512-.037v1.223l.569-.369c.548-.359 1.793-1.007 2.278-1.181a13.985 13.985 0 0 1 2.32-.612c.569-.1.838-.116 2.004-.121 1.149 0 1.428.016 1.95.116 1.588.295 2.758.754 3.96 1.55.438.295 1.35 1.076 1.656 1.419 1.218 1.365 1.909 2.773 2.325 4.74.185.891.248 1.761.216 3.058-.026.928-.052 1.255-.168 1.819-.143.717-.153.754-.364 1.397a10.554 10.554 0 0 1-.991 2.189c-.528.901-1.266 1.776-2.162 2.567-1.187 1.044-2.573 1.788-4.34 2.326-.87.269-2.299.458-3.427.458-.728 0-1.856-.11-2.41-.237-.68-.153-1.845-.553-2.388-.828-.733-.369-.802-.406-1.208-.69-.232-.164-.348-.222-.321-.159.39.934.522 1.656.527 2.837 0 1.129-.142 1.951-.48 2.795-.111.274-.48 1.017-.548 1.096-.027.037-.206.254-.39.486-.723.917-2.02 1.861-3.301 2.414-1.972.849-4.445 1.298-7.936 1.435-.944.037-2.504-.069-3.116-.211-.385-.09-1.26-.338-1.392-.396a12.422 12.422 0 0 1-1.265-.68c-.391-.258-1.203-1.065-1.471-1.466a6.527 6.527 0 0 1-1.039-3.053l-.037-.432-.48.206c-.859.358-2.099.669-3.143.785-.268.032-.648.079-.843.106-.19.026-.86.052-1.487.052-2.489 0-4.16-.453-5.906-1.602-1.539-1.013-2.552-2.284-3.337-4.171-.18-.438-.338-.68-.897-1.424-.369-.49-.733-.965-.796-1.044l-.126-.153v1.445c-.006.791-.027 2.162-.053 3.048-.026.885-.063 2.409-.084 3.385-.043 2.04.036 1.803-.654 1.861-.216.021-.528.058-.686.084-.158.027-.596.079-.975.127-.375.042-.875.1-1.107.132-.232.031-.802.1-1.266.158-.464.058-1.102.142-1.424.184-.316.048-.78.106-1.028.132-1.06.116-1.534.174-1.998.243-.269.042-.765.095-1.097.111l-.601.031.016-1.007.016-1.012-.396.385c-1.503 1.465-3.675 2.473-5.921 2.752-.316.037-.585.079-.596.095-.026.021-.084 1.93-.158 4.999-.016.833-.048 1.534-.069 1.566-.021.031-.332.094-.69.142a32.41 32.41 0 0 0-1.029.137c-.2.026-.653.084-1.001.127-.348.036-1.013.121-1.477.179-.464.058-1.139.142-1.502.19-.364.042-.823.1-1.029.131-.2.027-.785.101-1.292.159-.506.063-1.26.158-1.666.211-.411.058-.838.105-.944.105h-.2l.037-.643Zm5.278-1.682c.206-.027.664-.085 1.028-.127.364-.042.828-.1 1.028-.126.206-.032.586-.079.844-.111.264-.032.548-.069.638-.084l.169-.032.031-.954c.016-.528.058-1.957.085-3.175.031-1.218.068-2.388.084-2.594l.032-.385h.195c.105 0 .406.042.664.09 1.846.337 4.218-.259 5.827-1.461 1.033-.775 1.782-1.655 2.32-2.731.248-.496.559-1.302.611-1.577.021-.11.053-.237.079-.284.069-.137.259-1.603.259-2.025 0-.464-.179-1.782-.29-2.162-.048-.142-.121-.395-.169-.554a6.913 6.913 0 0 0-1.671-2.82c-.691-.691-1.334-1.087-2.268-1.403-.511-.169-1.371-.306-1.93-.311-.464 0-1.502.137-1.766.232a1.674 1.674 0 0 1-.316.084c-.058 0-.259.048-.438.106a2.364 2.364 0 0 1-.559.105h-.227l.022-1.017c.01-.554.026-1.139.036-1.292l.016-.274-.269.031c-.363.042-1.771.216-2.483.311-.316.042-.807.1-1.081.132a6.92 6.92 0 0 0-.585.084c-.111.032-.137.522-.201 3.512l-.042 2.088-.527.654c-1.192 1.466-1.74 2.42-2.257 3.918-.158.453-.206.68-.227 1.054-.021.427-.01.491.095.622.064.079.143.143.185.143.105 0 .369-.327.843-1.05l.923-1.413c.475-.733.496-.754.675-.754h.185l-.037 1.677a1902.58 1902.58 0 0 1-.269 10.424 233.478 233.478 0 0 0-.079 3.227v.322l.226-.026c.122-.011.391-.048.591-.074Zm3.929-11.801c0-.532.026-1.592.052-2.362.032-.77.074-2.188.1-3.158.037-1.361.069-1.772.122-1.804.037-.026.279-.089.532-.153.675-.152 1.782-.147 2.257.006.422.142.838.416 1.07.701.201.237.559.849.559.944a.75.75 0 0 0 .074.205c.285.549.385 2.273.195 3.296-.29 1.497-1.102 2.52-2.388 3.005-.57.217-.986.28-1.872.28h-.701v-.96Zm33.85.47c1.524-.254 2.458-.591 3.934-1.419l.38-.216.031-.301c.016-.168.058-.701.085-1.181.031-.485.079-1.065.105-1.292.021-.232.037-.421.026-.432-.005-.01-.295.132-.638.316-1.581.839-2.457 1.182-3.643 1.424-.464.095-.738.116-1.492.116-.844 0-.949-.01-1.239-.126-.438-.169-.654-.317-.928-.623-.454-.501-.786-1.355-.786-2.009v-.305l.464-.058c.253-.032.78-.095 1.17-.143.391-.047 1.055-.132 1.477-.184.422-.053 1.155-.148 1.634-.206.48-.063 1.06-.132 1.292-.163 1.139-.148 2.157-.269 2.61-.322.828-.084.738.011.738-.828 0-1.107-.094-1.75-.406-2.805-.616-2.093-2.103-3.622-4.049-4.165-.606-.169-1.529-.28-1.977-.243-1.176.106-2.041.327-2.937.749-.454.211-1.324.727-1.392.822a1.3 1.3 0 0 1-.211.174c-.248.185-.928.849-1.16 1.139-.712.87-1.223 1.867-1.603 3.095-.327 1.076-.406 2.595-.195 3.665.137.68.221.96.469 1.592.527 1.345 1.218 2.231 2.288 2.937a6.608 6.608 0 0 0 2.958 1.097c.633.074 2.252.016 2.995-.105Zm-4.165-8.553c0-.385.353-1.445.754-2.267.411-.833 1.086-1.239 2.072-1.239.781 0 1.282.306 1.603.975.274.575.517 2.014.359 2.115-.037.026-.232.063-.438.079-.2.021-.664.073-1.028.121l-1.265.163-1.218.159c-.86.11-.839.116-.839-.106ZM25.327 25.989c.206-.015.617-.063.923-.105a89.353 89.353 0 0 1 2.336-.295 7.68 7.68 0 0 0 .585-.079l.121-.027.032-1.381c.016-.759.058-2.7.089-4.308l.064-2.926.184-.396c.448-.928.955-1.518 1.577-1.824.327-.164.448-.195.854-.222.812-.042 1.139.085 1.803.707.206.195.385.343.396.327.026-.021.464-1.292 1.271-3.675l.242-.707-.126-.1c-.623-.49-1.429-.902-1.936-.991-.332-.064-.427-.058-.738.015-.548.132-1.06.459-1.671 1.066-.459.448-.68.727-1.26 1.544-.058.08-.138.116-.264.116h-.185V11.7c0-.944-.005-1.028-.089-1.028-.085 0-.57.058-1.714.211-.221.032-.696.09-1.054.132-.354.042-.865.105-1.129.142l-.48.063-.037.844c-.015.469-.058 2.083-.084 3.591-.032 1.508-.079 3.48-.105 4.376-.032.902-.064 2.452-.079 3.454a115.45 115.45 0 0 1-.053 2.204c-.021.348-.016.385.068.358.048-.01.259-.036.459-.058Zm33.034 2.98c4.45-.354 6.48-.992 8.02-2.526.585-.585.817-1.076.97-2.025.074-.474.074-.564 0-1.002-.153-.901-.39-1.36-1.028-1.993-.39-.385-.543-.495-1.007-.722-1.155-.564-2.283-.802-4.345-.907-1.271-.063-2.462-.19-2.774-.29a1.138 1.138 0 0 1-.369-.216c-.116-.122-.126-.18-.126-.654 0-.48.01-.527.132-.659.279-.301.754-.475 1.529-.554 2.425-.258 4.123-.933 5.199-2.067.748-.785 1.086-1.487 1.26-2.599.084-.517.079-.591-.005-1.144a6.3 6.3 0 0 0-.464-1.645c-.074-.169-.137-.401-.137-.512 0-.227.005-.232.553-.279.174-.016.58-.069.902-.122l.585-.089.032-.865c.047-1.165.047-2.183 0-2.157-.027.016-.301.053-.622.085-.317.031-.807.095-1.081.137-.275.037-.739.1-1.029.132-.98.116-1.74.205-2.109.263-.2.027-.785.101-1.291.159-.507.058-1.171.142-1.477.184-.306.042-.696.09-.87.106-.96.1-2.077.416-2.847.806-.754.38-1.677 1.155-2.067 1.746-.696 1.033-1.018 2.262-.865 3.306.253 1.734 1.487 3.406 2.916 3.954.364.137.364.137.348.322-.016.174-.032.19-.385.311-1.83.627-2.647 1.655-2.32 2.921.106.417.306.749.596 1.007.253.222 1.102.744 1.318.807.095.031.116.074.111.232 0 .184-.016.2-.327.353-1.271.617-2.209 1.566-2.484 2.515-.11.39-.105.649.022 1.144.348 1.371 1.302 2.141 2.994 2.431.965.164 1.535.19 2.542.106Zm-.469-2.626c-.68-.079-1.123-.401-1.197-.865-.053-.385 0-.791.132-.986.153-.221.48-.475 1.028-.791l.427-.253h.949c2.573.005 3.406.127 3.739.543.153.19.163.243.179.686.021.469.016.49-.142.706-.275.38-.712.564-1.825.78-1.07.206-2.431.28-3.29.18Zm.822-11.49c-.516-.089-1.033-.543-1.291-1.139-.127-.295-.137-.363-.137-1.26-.006-.843.01-.996.121-1.371.158-.543.263-.743.532-1.023.285-.29.67-.464 1.197-.537 1.139-.164 1.83.205 2.183 1.165.116.316.127.422.127 1.344 0 1.06-.053 1.356-.338 1.909-.379.749-1.292 1.097-2.394.912Zm19.051 4.862c3.095-.559 5.547-2.6 6.485-5.405.285-.854.38-1.413.406-2.372.021-.728.005-.981-.089-1.53-.106-.611-.264-1.249-.37-1.502a25.45 25.45 0 0 1-.21-.496c-.649-1.518-2.015-2.826-3.586-3.427-2.04-.791-4.339-.654-6.48.374-.464.227-1.498.865-1.587.986a1.49 1.49 0 0 1-.185.158c-.585.449-1.46 1.461-1.882 2.189-.443.754-.807 1.692-1.028 2.641-.143.638-.132 2.083.026 2.795.422 1.903 1.323 3.295 2.837 4.376.812.58 1.893 1.034 2.842 1.192.205.037.474.079.606.105.375.064 1.666.016 2.215-.084Zm-1.888-3.833c-.501-.111-.791-.28-1.197-.686-.643-.638-.917-1.402-.922-2.557 0-1.434.416-2.631 1.186-3.401.559-.559 1.255-.817 2.215-.817.569 0 .922.079 1.349.295.29.148.718.543.913.854.564.896.669 2.621.242 3.97-.285.881-.996 1.783-1.682 2.12-.511.253-1.508.359-2.104.222Z" style="fill:#00243b"/><path d="M6.688 34.853c0-.285.032-1.787.079-3.338.227-8.267.311-11.811.28-11.811-.016 0-.248.338-.517.754l-.923 1.413c-.617.939-.722 1.05-.996 1.05-.29 0-.412-.127-.454-.491-.058-.437.027-1.028.243-1.65.501-1.476 1.06-2.441 2.251-3.912l.527-.654.043-1.983c.021-1.097.052-2.32.068-2.726.016-.406.032-.764.032-.801 0-.085.1-.111.685-.174.274-.032.765-.09 1.081-.132 1.229-.164 3.053-.385 3.064-.374.005 0-.011.585-.027 1.297-.021.711-.026 1.302-.015 1.313.005.015.189-.027.406-.09.216-.063.437-.116.485-.116.052-.005.189-.042.305-.084.116-.043.486-.111.818-.153 1.819-.238 3.348.079 4.692.965.464.305 1.208 1.086 1.593 1.671.337.522.68 1.255.849 1.819.047.158.121.411.168.554.127.427.29 1.724.29 2.32 0 .543-.174 2.019-.258 2.183a1.309 1.309 0 0 0-.079.284c-.053.275-.364 1.081-.612 1.577-1.313 2.631-4.107 4.297-7.171 4.281-.532 0-.991-.031-1.312-.094-.269-.048-.501-.08-.517-.064-.032.032-.106 2.104-.174 4.825a124.66 124.66 0 0 1-.069 2.257c-.01.005-.29.052-.622.095-.332.042-.78.105-1.007.131-.221.032-.696.09-1.055.132-.353.048-.922.116-1.255.158-.332.043-.669.074-.748.079h-.148v-.511Zm6.554-10.825c.464-.069 1.197-.343 1.571-.596 1.118-.738 1.735-2.093 1.735-3.786 0-.638-.147-1.545-.295-1.829a.754.754 0 0 1-.074-.206c0-.095-.358-.707-.559-.944-.232-.285-.648-.559-1.07-.701-.464-.153-1.287-.153-1.941-.005-.253.063-.495.126-.532.153-.053.031-.084.442-.121 1.803-.027.97-.069 2.388-.101 3.158-.026.77-.052 1.761-.052 2.204v.802h.543c.295 0 .701-.027.896-.053Zm43.195 5.13c-.507-.042-1.477-.237-1.804-.363-.859-.322-1.376-.76-1.777-1.524-.321-.596-.432-1.529-.263-2.125.274-.949 1.213-1.898 2.483-2.515.18-.085.327-.174.327-.195.005-.021-.047-.053-.111-.074-.216-.063-1.065-.585-1.318-.807-.448-.401-.675-.975-.675-1.729 0-.696.253-1.224.812-1.693.311-.258.997-.622 1.535-.801.205-.069.39-.143.411-.164.026-.021-.121-.1-.322-.174-1.376-.527-2.594-2.125-2.884-3.78-.232-1.313.063-2.647.833-3.797.39-.59 1.313-1.365 2.067-1.745.77-.39 1.888-.707 2.847-.807.174-.016.565-.063.87-.105.306-.042.971-.127 1.477-.185.506-.058 1.091-.132 1.292-.158.342-.053.88-.116 2.109-.264.263-.031.722-.089 1.028-.132.306-.047.754-.1 1.002-.131.248-.027.585-.064.754-.085l.306-.037-.016 1.129a78.247 78.247 0 0 1-.032 1.687l-.016.554-.564.089c-.311.048-.749.106-.97.122-.221.021-.432.052-.469.079-.048.026-.027.132.1.427.269.638.364.986.464 1.692.095.638.095.702.005 1.292-.169 1.176-.506 1.883-1.271 2.689-1.075 1.134-2.773 1.809-5.199 2.067-.775.079-1.249.253-1.529.554-.116.121-.131.19-.131.501 0 .427.105.58.495.712.311.1 1.503.226 2.774.29 2.061.105 3.19.342 4.344.907.464.226.617.337 1.008.722.653.648.88 1.097 1.038 2.056.085.522.085.591 0 1.16-.147 1.013-.39 1.529-.98 2.12-1.234 1.223-2.795 1.866-5.489 2.262-1.672.242-3.607.364-4.561.279Zm3.137-2.968c.728-.053 1.898-.243 2.346-.385.401-.127.765-.353.928-.58.148-.2.159-.248.143-.548-.053-.876-.717-1.06-3.76-1.071h-.791l-.422.243c-.427.248-.822.543-.986.733-.253.29-.247.854.011 1.149.385.443 1.044.559 2.531.459Zm.058-11.49c.58-.094 1.076-.442 1.318-.917.274-.527.338-.865.338-1.751 0-.759-.011-.875-.127-1.186-.337-.912-.991-1.308-1.919-1.16-.496.074-.87.253-1.144.533-.269.279-.375.479-.533 1.023-.105.358-.121.537-.121 1.212.005.728.016.818.137 1.102.379.881 1.123 1.297 2.051 1.144ZM24.589 25.473c.011-.464.037-1.524.053-2.368.016-.838.053-2.288.079-3.216.026-.928.074-2.911.105-4.403.027-1.492.069-3.095.085-3.564l.037-.844.48-.063c.263-.037.775-.1 1.138-.143.364-.042.828-.1 1.029-.126.696-.1 1.687-.216 1.919-.232l.232-.011-.011 1.055-.005 1.054.116-.137c.069-.079.243-.316.385-.527.148-.216.527-.654.844-.975.907-.907 1.555-1.224 2.425-1.166.232.016.543.064.686.111.284.09 1.075.522 1.429.791.121.09.258.19.305.216.079.048.037.19-.337 1.292-.986 2.863-1.171 3.411-1.218 3.575l-.053.169-.485-.496c-.269-.269-.58-.554-.696-.622-.511-.317-1.176-.322-1.798-.016-.612.301-1.123.896-1.566 1.819l-.185.396-.063 2.926c-.031 1.608-.074 3.549-.089 4.308l-.032 1.381-.121.027a7.73 7.73 0 0 1-.586.079c-.664.074-1.782.211-2.151.269-.174.026-.638.084-1.028.131-.39.043-.765.095-.833.111l-.121.037.031-.838Zm17.701-1.445a6.6 6.6 0 0 1-2.958-1.097c-1.434-.949-2.331-2.425-2.758-4.529-.163-.807-.163-2.267 0-3.111.29-1.524.897-2.858 1.798-3.965.232-.29.912-.954 1.16-1.139.1-.074.195-.148.211-.174.069-.095.939-.612 1.392-.823.96-.453 1.898-.68 3.095-.748.849-.053 1.999.142 2.795.464 1.323.548 2.489 1.724 3.1 3.137.285.654.559 1.687.643 2.441.058.512.08 2.152.032 2.204-.021.016-.29.064-.601.095-.517.058-1.666.201-2.726.338-.232.031-.812.1-1.292.163-.48.058-1.213.153-1.634.206-.422.052-1.087.137-1.477.184-1.803.216-1.634.18-1.634.348 0 .248.211.949.385 1.282.189.358.558.785.822.949.48.306.77.369 1.614.364.796 0 1.37-.09 2.298-.354.649-.184 2.009-.812 3.185-1.471l.422-.232.016.158c.01.09-.016.554-.063 1.034a50.51 50.51 0 0 0-.111 1.429c-.016.306-.042.68-.058.833l-.032.279-.379.211c-1.477.828-2.405 1.16-3.934 1.419-.738.121-2.636.184-3.311.105Zm-.137-8.906c.284-.037.785-.095 1.102-.137 1.328-.179 1.919-.253 2.278-.285.205-.015.395-.052.416-.073.127-.122-.1-1.282-.348-1.804-.385-.801-1.149-1.144-2.009-.891-.901.264-1.26.723-1.861 2.394-.079.227-.243.812-.243.881 0 .015.032.015.069 0 .042-.016.306-.053.596-.085Zm33.187 4.851c-.132-.026-.401-.068-.607-.105-.949-.158-2.03-.612-2.842-1.192-1.513-1.076-2.415-2.468-2.837-4.376-.163-.723-.174-2.457-.026-3.111.221-.949.585-1.888 1.028-2.642.422-.727 1.297-1.74 1.883-2.188.089-.069.168-.137.184-.158.09-.122 1.123-.76 1.587-.986a8.957 8.957 0 0 1 3.211-.865c1.645-.132 3.206.185 4.472.917 1.191.686 2.177 1.788 2.699 3.001.09.216.185.437.211.495.106.253.264.891.369 1.503.153.875.132 2.431-.042 3.216-.474 2.183-1.624 3.876-3.443 5.094-.933.622-2.13 1.097-3.317 1.313-.548.1-2.124.153-2.53.084Zm2.003-4.302c.549-.143.949-.412 1.397-.928.818-.96 1.187-2.431.95-3.786-.138-.786-.364-1.25-.828-1.703-.628-.612-1.529-.818-2.489-.57-.554.148-.896.338-1.271.712-.553.554-.912 1.287-1.081 2.215-.19 1.038-.1 1.951.269 2.705.206.421.796 1.033 1.166 1.212.553.269 1.202.317 1.887.143Z" style="fill:#fafafc"/></svg>