<?xml version="1.0" encoding="UTF-8" standalone="no"?><!DOCTYPE svg PUBLIC "-//W3C//DTD SVG 1.1//EN" "http://www.w3.org/Graphics/SVG/1.1/DTD/svg11.dtd"><svg width="100%" height="100%" viewBox="0 0 61 62" version="1.1" xmlns="http://www.w3.org/2000/svg" xmlns:xlink="http://www.w3.org/1999/xlink" xml:space="preserve" xmlns:serif="http://www.serif.com/" style="fill-rule:evenodd;clip-rule:evenodd;stroke-linejoin:round;stroke-miterlimit:2;"><g><path d="M6.319,36.573c7.433,-7.262 18.832,-6.672 18.832,-6.672c-0.341,13.498 -17.202,27.965 -9.427,22.668c7.774,-5.297 14.28,-10.162 18.361,-19.157c3.318,-7.312 19.683,-9.995 17.257,-9.967c-0.252,0.002 -4.257,0.017 -6.161,-0.103c-10.851,-0.683 -11.234,0.928 -11.234,0.928l0.333,-11.061c-18.388,7.303 -27.961,23.364 -27.961,23.364Z" style="fill:url(#_Linear1);fill-rule:nonzero;"/><path d="M42.969,52.724c-8.595,6.228 -18.99,7.681 -27.321,4.675c9.226,4.919 20.835,4.502 29.871,-2.046c12.626,-9.15 15.444,-26.803 6.294,-39.429c7.975,11.005 4.015,27.481 -8.844,36.8Z" style="fill:url(#_Linear2);fill-rule:nonzero;"/><path d="M5.245,49.671c2.645,3.649 6.27,6.237 10.403,7.728c-3.666,-1.954 -6.956,-4.75 -9.558,-8.341c-2.601,-3.59 -4.235,-7.587 -4.95,-11.679c0.13,4.392 1.461,8.643 4.105,12.292Z" style="fill:url(#_Linear3);fill-rule:nonzero;"/><g><path d="M7.556,13.133c9.026,-11.73 26.57,-13.368 39.185,-3.66c12.615,9.708 15.524,27.086 6.497,38.815c10.322,-13.413 8.464,-32.156 -4.151,-41.865c-4.995,-3.844 -10.93,-5.695 -16.916,-5.696c-9.13,-0 -18.38,4.304 -24.615,12.406Z" style="fill:url(#_Linear4);"/></g><path d="M12.385,9.629c-9.036,6.548 -13.047,17.451 -11.245,27.75c-0.264,-8.853 4.354,-18.279 12.95,-24.508c12.859,-9.318 29.749,-7.952 37.723,3.053c-5.521,-7.62 -14.143,-11.668 -22.885,-11.668c-5.743,-0.001 -11.538,1.746 -16.543,5.373Z" style="fill:url(#_Linear5);fill-rule:nonzero;"/></g><defs><linearGradient id="_Linear1" x1="0" y1="0" x2="1" y2="0" gradientUnits="userSpaceOnUse" gradientTransform="matrix(45.2668,0,0,45.2668,6.31891,33.4493)"><stop offset="0" style="stop-color:#0ff;stop-opacity:1"/><stop offset="1" style="stop-color:#0071bc;stop-opacity:1"/></linearGradient><linearGradient id="_Linear2" x1="0" y1="0" x2="1" y2="0" gradientUnits="userSpaceOnUse" gradientTransform="matrix(45.7224,-33.1356,33.1356,45.7224,14.3747,60.4901)"><stop offset="0" style="stop-color:#0ff;stop-opacity:1"/><stop offset="1" style="stop-color:#0071bc;stop-opacity:1"/></linearGradient><linearGradient id="_Linear3" x1="0" y1="0" x2="1" y2="0" gradientUnits="userSpaceOnUse" gradientTransform="matrix(46.5732,-33.7522,33.7522,46.5732,5.24539,49.6708)"><stop offset="0" style="stop-color:#0ff;stop-opacity:1"/><stop offset="1" style="stop-color:#0071bc;stop-opacity:1"/></linearGradient><linearGradient id="_Linear4" x1="0" y1="0" x2="1" y2="0" gradientUnits="userSpaceOnUse" gradientTransform="matrix(41.8206,45.4981,-45.4981,41.8206,18.0906,0.727468)"><stop offset="0" style="stop-color:#000405;stop-opacity:1"/><stop offset="0.24" style="stop-color:#001e28;stop-opacity:1"/><stop offset="0.46" style="stop-color:#002734;stop-opacity:1"/><stop offset="1" style="stop-color:#004c63;stop-opacity:1"/></linearGradient><linearGradient id="_Linear5" x1="0" y1="0" x2="1" y2="0" gradientUnits="userSpaceOnUse" gradientTransform="matrix(45.7218,-33.1352,33.1352,45.7218,-2.1926,37.6284)"><stop offset="0" style="stop-color:#0ff;stop-opacity:1"/><stop offset="1" style="stop-color:#0071bc;stop-opacity:1"/></linearGradient></defs></svg>