<?xml version="1.0" encoding="UTF-8" standalone="no"?><!DOCTYPE svg PUBLIC "-//W3C//DTD SVG 1.1//EN" "http://www.w3.org/Graphics/SVG/1.1/DTD/svg11.dtd"><svg width="100%" height="100%" viewBox="0 0 206 66" version="1.1" xmlns="http://www.w3.org/2000/svg" xmlns:xlink="http://www.w3.org/1999/xlink" xml:space="preserve" xmlns:serif="http://www.serif.com/" style="fill-rule:evenodd;clip-rule:evenodd;stroke-linejoin:round;stroke-miterlimit:2;"><g><g><path d="M200.515,29.656l3.971,-0l-0,-2.028l-3.971,-0l-0,-4.34l-2.213,-0l0,4.34l-2.678,-0l0,2.028l2.678,-0l0,9.237c0,3.938 2.89,4.338 4.152,4.338c0.77,-0 1.447,-0.154 2.032,-0.369l-0,-2.09c-0.462,0.215 -1.015,0.369 -1.753,0.369c-1.634,0 -2.218,-0.585 -2.218,-2.124l-0,-9.361Zm-97.671,-2.305c-6.984,-0 -6.738,6.525 -6.738,8.155c0,6.403 3.813,7.725 7.015,7.725c2.185,-0 4.001,-0.369 5.479,-1.076l-0,-2.277c-1.293,0.77 -3.017,1.14 -5.264,1.14c-3.17,0 -4.71,-1.325 -4.987,-4.406l11.205,0c-0,0 0.062,-0.491 0.062,-1.075c-0,-0.584 0.215,-8.186 -6.772,-8.186Zm66.645,-0c-3.295,-0 -7.201,1.382 -7.201,7.94c-0,6.557 3.906,7.94 7.201,7.94c3.294,-0 7.232,-1.383 7.232,-7.94c-0,-6.558 -3.938,-7.94 -7.232,-7.94Zm-79.97,-4.925l-0,17.322l-12.256,-17.322l-2.52,-0l0,20.558l2.213,0l-0,-17.322l12.286,17.322l2.489,0l0,-20.558l-2.212,-0Zm70.856,7.076l0,-2.12c-3.692,-0 -6.645,1.137 -7.445,1.475l-0,14.127l2.212,0l0,-12.682c1.265,-0.338 3.111,-0.739 5.233,-0.8Zm26.383,-2.151c-3.203,-0 -5.756,1.137 -6.494,1.506l0,14.127l2.213,0l-0,-12.805c1.047,-0.308 2.463,-0.616 4.034,-0.616c3.696,0 4.127,1.97 4.127,3.417l-0,10.004l2.212,0l0,-10.004c0,-3.57 -2.212,-5.629 -6.092,-5.629Zm-49.465,-4.925l-0,20.558l2.212,0l0,-9.203l9.111,-0l0,-2.151l-9.111,-0l0,-7.115l10.373,0l0,-2.089l-12.585,-0Zm-6.22,5.202l-3.91,11.879l-3.57,-11.879l-2.124,-0l-3.54,11.879l-3.909,-11.879l-2.34,-0l5.11,15.356l2.247,0l3.509,-11.479l3.51,11.479l2.246,0l5.11,-15.356l-2.339,-0Zm38.416,13.575c-3.48,-0 -4.989,-1.786 -4.989,-5.912c0,-4.126 1.509,-5.912 4.989,-5.912c3.51,-0 5.019,1.786 5.019,5.912c0,4.126 -1.509,5.912 -5.019,5.912Zm-71.139,-6.557c0.215,-3.789 1.477,-5.206 4.494,-5.206c4.248,0 4.494,4.467 4.494,5.206l-8.988,0Z" style="fill:#fff;fill-rule:nonzero;"/></g><path d="M6.591,38.812c7.613,-7.438 19.289,-6.833 19.289,-6.833c-0.35,13.825 -17.619,28.642 -9.656,23.217c7.963,-5.425 14.627,-10.408 18.807,-19.622c3.398,-7.489 20.16,-10.237 17.675,-10.208c-0.257,0.002 -4.36,0.017 -6.31,-0.105c-11.114,-0.7 -11.507,0.95 -11.507,0.95l0.342,-11.33c-18.834,7.48 -28.64,23.931 -28.64,23.931Z" style="fill:#fff;fill-rule:nonzero;"/><path d="M44.13,55.355c-8.803,6.378 -19.45,7.867 -27.983,4.788c9.449,5.039 21.34,4.611 30.595,-2.095c12.932,-9.372 15.819,-27.453 6.447,-40.385c8.168,11.271 4.113,28.147 -9.059,37.692Z" style="fill:#fff;fill-rule:nonzero;"/><path d="M5.492,52.228c2.708,3.737 6.421,6.388 10.655,7.915c-3.755,-2.001 -7.125,-4.865 -9.79,-8.543c-2.665,-3.677 -4.337,-7.771 -5.07,-11.963c0.133,4.499 1.496,8.853 4.205,12.591Z" style="fill:#fff;fill-rule:nonzero;"/><g><path d="M7.858,14.803c9.246,-12.013 27.215,-13.692 40.136,-3.748c12.921,9.943 15.9,27.743 6.654,39.757c10.573,-13.739 8.67,-32.936 -4.251,-42.881c-5.117,-3.937 -11.196,-5.833 -17.327,-5.834c-9.351,-0 -18.826,4.408 -25.212,12.706Z" style="fill:#fff;"/></g><path d="M12.804,11.215c-9.255,6.707 -13.363,17.874 -11.517,28.422c-0.27,-9.067 4.459,-18.721 13.263,-25.101c13.172,-9.545 30.471,-8.145 38.639,3.127c-5.656,-7.805 -14.486,-11.951 -23.44,-11.952c-5.883,-0 -11.818,1.789 -16.945,5.504Z" style="fill:#fff;fill-rule:nonzero;"/><path d="M121.814,52.804c0,1.406 -0.843,2.109 -2.529,2.109c-0.706,0 -1.332,-0.092 -1.88,-0.277l0,-0.5c0.558,0.185 1.189,0.278 1.89,0.278c1.297,-0 1.945,-0.537 1.945,-1.61l0,-0.277c-0.648,0.185 -1.219,0.277 -1.715,0.277c-1.813,0 -2.72,-0.982 -2.72,-2.947c-0,-1.92 0.974,-2.88 2.922,-2.88c0.74,-0 1.435,0.079 2.087,0.238l0,5.589Zm82.672,0c-0,1.406 -0.843,2.109 -2.53,2.109c-0.706,0 -1.333,-0.092 -1.879,-0.277l-0,-0.5c0.557,0.185 1.187,0.278 1.89,0.278c1.297,-0 1.945,-0.537 1.945,-1.61l-0,-0.277c-0.648,0.185 -1.22,0.277 -1.715,0.277c-1.814,0 -2.721,-0.982 -2.721,-2.947c0,-1.92 0.974,-2.88 2.923,-2.88c0.739,-0 1.434,0.079 2.087,0.238l-0,5.589Zm-62.187,-2.914c0,-1.979 0.892,-2.969 2.677,-2.969c1.785,0 2.677,0.99 2.677,2.969c0,1.976 -0.892,2.964 -2.677,2.964c-1.778,0 -2.669,-0.988 -2.677,-2.964Zm-9.043,-1.381c0,-1.056 0.69,-1.584 2.066,-1.584c0.499,0 0.986,0.069 1.457,0.206l0,0.37c-0.498,-0.137 -0.98,-0.206 -1.444,-0.206c-1.102,0 -1.653,0.398 -1.653,1.194c0,0.768 0.452,1.152 1.357,1.152l1.894,-0l0,-0.708l0.296,-0l0.09,0.708l0.696,-0l-0,0.37l-0.656,-0l0,0.782c0,1.352 -0.699,2.028 -2.097,2.028c-1.338,-0 -2.006,-0.545 -2.006,-1.633c0,-0.678 0.302,-1.135 0.904,-1.371c-0.602,-0.178 -0.904,-0.614 -0.904,-1.308Zm-18.035,-1.532l-0,5.827l-0.573,0l-0,-5.827l0.573,-0Zm43.258,-0l0.585,-0l1.235,5.122l1.818,-5.122l0.422,-0l1.867,5.011l1.262,-5.011l0.563,-0l-1.496,5.827l-0.597,0l-1.808,-4.967l-1.78,4.967l-0.618,0l-1.453,-5.827Zm9.636,-0l0,5.827l-0.573,0l-0,-5.827l0.573,-0Zm-78.279,-2.11l0.574,0l0,2.387c0.688,-0.185 1.28,-0.277 1.775,-0.277c1.741,-0 2.611,0.932 2.611,2.797c0,2.02 -0.915,3.03 -2.747,3.03c-0.823,0 -1.561,-0.079 -2.213,-0.238l0,-7.699Zm101.583,2.11l-0,5.827l-0.573,0l-0,-5.827l0.573,-0Zm-35.841,-0.944l0.405,0l0.104,0.944l1.721,-0l0,0.499l-1.672,0l-0,3.68c-0,0.766 0.276,1.149 0.83,1.149l0.842,-0l0,0.499l-0.831,0c-0.932,0 -1.399,-0.523 -1.399,-1.57l0,-5.201Zm28.788,0.944c1.57,-0 2.356,0.882 2.356,2.647c-0,0.126 -0.005,0.257 -0.012,0.394l-4.354,0c0,1.525 0.794,2.287 2.383,2.287c0.651,-0 1.23,-0.093 1.736,-0.278l-0,0.5c-0.506,0.185 -1.085,0.277 -1.736,0.277c-1.971,0 -2.956,-0.993 -2.956,-2.98c-0,-1.898 0.862,-2.847 2.583,-2.847Zm-14.448,5.827l0,-7.937l0.574,0l-0,2.62c0.666,-0.34 1.4,-0.51 2.202,-0.51c1.354,-0 2.031,0.56 2.031,1.681c-0,0.851 -0.601,1.432 -1.803,1.743l1.945,2.403l-0.841,0l-1.825,-2.414l0,-0.35c1.301,-0.151 1.951,-0.614 1.951,-1.387c-0,-0.785 -0.528,-1.177 -1.585,-1.177c-0.702,0 -1.395,0.174 -2.075,0.522l-0,4.806l-0.574,0Zm6.042,0l0,-7.937l0.573,0l-0,2.62c0.667,-0.34 1.4,-0.51 2.202,-0.51c1.355,-0 2.032,0.56 2.032,1.681c-0,0.851 -0.601,1.432 -1.803,1.743l1.945,2.403l-0.842,0l-1.823,-2.414l-0,-0.35c1.299,-0.151 1.949,-0.614 1.949,-1.387c-0,-0.785 -0.528,-1.177 -1.584,-1.177c-0.703,0 -1.394,0.174 -2.076,0.522l-0,4.806l-0.573,0Zm-52.398,0l-0,-5.827l0.41,-0l0.071,0.743c0.732,-0.495 1.449,-0.743 2.152,-0.743c1.396,-0 2.093,0.612 2.093,1.837l0,3.99l-0.574,0l0,-4.007c0,-0.866 -0.516,-1.299 -1.546,-1.299c-0.688,0 -1.365,0.246 -2.032,0.738l-0,4.568l-0.574,0Zm25.565,0l0,-5.827l0.41,-0l0.071,0.743c0.732,-0.495 1.449,-0.743 2.152,-0.743c1.395,-0 2.092,0.612 2.092,1.837l0,3.99l-0.573,0l0,-4.007c0,-0.866 -0.515,-1.299 -1.546,-1.299c-0.688,0 -1.366,0.246 -2.032,0.738l0,4.568l-0.574,0Zm44.149,0l-0,-5.827l0.41,-0l0.071,0.743c0.732,-0.495 1.449,-0.743 2.152,-0.743c1.395,-0 2.092,0.612 2.092,1.837l-0,3.99l-0.573,0l0,-4.007c0,-0.866 -0.516,-1.299 -1.546,-1.299c-0.688,0 -1.366,0.246 -2.032,0.738l-0,4.568l-0.574,0Zm-84.473,-0.277l-0,-0.555c0.637,0.222 1.263,0.333 1.879,0.333c1.205,-0 1.808,-0.389 1.808,-1.166c-0,-0.629 -0.446,-0.943 -1.338,-0.943l-0.732,-0c-1.202,-0 -1.803,-0.518 -1.803,-1.554c-0,-1.11 0.796,-1.665 2.388,-1.665c0.611,-0 1.235,0.092 1.873,0.277l-0,0.555c-0.638,-0.222 -1.262,-0.333 -1.873,-0.333c-1.21,0 -1.814,0.389 -1.814,1.166c-0,0.666 0.409,0.999 1.229,0.999l0.732,-0c1.274,-0 1.912,0.499 1.912,1.498c-0,1.11 -0.795,1.665 -2.382,1.665c-0.616,0 -1.242,-0.092 -1.879,-0.277Zm-3.72,-5.55c1.569,-0 2.354,0.882 2.354,2.647c0,0.126 -0.004,0.257 -0.011,0.394l-4.354,0c0,1.525 0.794,2.287 2.382,2.287c0.652,-0 1.231,-0.093 1.737,-0.278l0,0.5c-0.506,0.185 -1.085,0.277 -1.737,0.277c-1.97,0 -2.955,-0.993 -2.955,-2.98c-0,-1.898 0.861,-2.847 2.584,-2.847Zm-30.34,-0l0.585,-0l1.234,5.122l1.82,-5.122l0.42,-0l1.868,5.011l1.262,-5.011l0.563,-0l-1.497,5.827l-0.595,0l-1.808,-4.967l-1.781,4.967l-0.618,0l-1.453,-5.827Zm11.264,-0c1.57,-0 2.355,0.882 2.355,2.647c-0,0.126 -0.004,0.257 -0.011,0.394l-4.354,0c0,1.525 0.794,2.287 2.382,2.287c0.652,-0 1.231,-0.093 1.737,-0.278l-0,0.5c-0.506,0.185 -1.085,0.277 -1.737,0.277c-1.97,0 -2.955,-0.993 -2.955,-2.98c-0,-1.898 0.861,-2.847 2.583,-2.847Zm102.872,-2.11l0,7.937l-0.573,0l-0,-7.937l0.573,0Zm-87.855,7.588c-0.623,0.233 -1.408,0.349 -2.354,0.349c-1.781,0 -2.672,-1.01 -2.672,-3.03c0,-1.865 0.907,-2.797 2.721,-2.797c0.568,-0 1.145,0.092 1.731,0.277l0,-2.387l0.574,0l0,7.588Zm34.022,-2.444c-0.909,-0 -1.364,0.385 -1.364,1.156c0,0.848 0.515,1.271 1.543,1.271c1.139,0 1.709,-0.551 1.709,-1.654l0,-0.773l-1.888,-0Zm7.827,-0.143c0,1.662 0.701,2.492 2.103,2.492c1.402,0 2.103,-0.83 2.103,-2.492c0,-1.632 -0.701,-2.447 -2.103,-2.447c-1.402,-0 -2.103,0.815 -2.103,2.447Zm-52.463,2.254c0.587,0.107 1.116,0.161 1.59,0.161c1.493,-0 2.239,-0.85 2.239,-2.548c0,-1.469 -0.686,-2.203 -2.059,-2.203c-0.524,-0 -1.114,0.099 -1.77,0.299l0,4.291Zm10.04,-4.346c-0.553,-0.2 -1.128,-0.3 -1.726,-0.3c-1.409,0 -2.114,0.753 -2.114,2.259c0,1.698 0.705,2.548 2.114,2.548c0.598,-0 1.173,-0.073 1.726,-0.217l0,-4.29Zm103.462,-0.145c-0.528,-0.088 -1.047,-0.133 -1.557,-0.133c-1.547,0 -2.322,0.783 -2.322,2.348c0,1.602 0.723,2.403 2.169,2.403c0.525,0 1.094,-0.1 1.71,-0.299l-0,-4.319Zm-82.672,0c-0.528,-0.088 -1.047,-0.133 -1.556,-0.133c-1.548,0 -2.322,0.783 -2.322,2.348c-0,1.602 0.723,2.403 2.169,2.403c0.524,0 1.094,-0.1 1.709,-0.299l0,-4.319Zm-37.243,1.865l3.813,0c-0.022,-1.354 -0.623,-2.031 -1.803,-2.031c-1.275,-0 -1.945,0.677 -2.01,2.031Zm98.359,0l3.813,0c-0.021,-1.354 -0.622,-2.031 -1.803,-2.031c-1.274,-0 -1.943,0.677 -2.01,2.031Zm-79.284,0l3.813,0c-0.022,-1.354 -0.623,-2.031 -1.803,-2.031c-1.274,-0 -1.944,0.677 -2.01,2.031Zm65.098,-4.629l0,0.667l-0.682,-0l-0,-0.667l0.682,0Zm23.303,0l0,0.667l-0.682,-0l-0,-0.667l0.682,0Zm-76.197,0l-0,0.667l-0.683,-0l-0,-0.667l0.683,0Z" style="fill:#fff;fill-rule:nonzero;"/></g></svg>