<svg xmlns="http://www.w3.org/2000/svg" xml:space="preserve" style="fill-rule:evenodd;clip-rule:evenodd;stroke-linejoin:round;stroke-miterlimit:2" viewBox="0 0 27 27"><path d="M23.788 11.046a1.2 1.2 0 0 1 2.352-.479c.177.868.266 1.751.266 2.636 0 7.243-5.96 13.203-13.203 13.203C5.96 26.406 0 20.446 0 13.203 0 5.96 5.96 0 13.203 0c2.316 0 4.592.61 6.599 1.767a1.2 1.2 0 0 1-1.2 2.079 10.806 10.806 0 0 0-5.399-1.445c-5.926 0-10.802 4.876-10.802 10.802 0 5.926 4.876 10.803 10.802 10.803 5.926 0 10.803-4.877 10.803-10.803 0-.724-.073-1.447-.218-2.157Z" style="fill:#00aed9"/><path d="M8.751 12.856a1.2 1.2 0 0 1 1.697-1.698L13.2 13.91 24.354 2.756a1.202 1.202 0 0 1 1.698 0 1.202 1.202 0 0 1 0 1.698L14.049 16.456a1.2 1.2 0 0 1-1.697 0l-3.601-3.6Z" style="fill:#00aed9"/></svg>