<svg xmlns="http://www.w3.org/2000/svg" xml:space="preserve" style="fill-rule:evenodd;clip-rule:evenodd;stroke-linejoin:round;stroke-miterlimit:2" viewBox="0 0 16 14"><path d="m10.463 13.5-3.188-3.188 1.05-1.049 2.137 2.137L14.7 7.162l1.05 1.05-5.288 5.288ZM7.501 5.25l6-3.75h-12l6 3.75Zm0 1.5-6-3.75v7.5h3.862l1.5 1.5H1.501c-.413 0-.766-.147-1.059-.441A1.441 1.441 0 0 1 .001 10.5v-9c0-.413.147-.766.441-1.059A1.441 1.441 0 0 1 1.501 0h12c.412 0 .766.147 1.059.441.294.293.441.646.441 1.059v3.262l-1.5 1.5V3l-6 3.75Z" style="fill:#fff;fill-rule:nonzero"/></svg>