<svg xmlns="http://www.w3.org/2000/svg" xml:space="preserve" style="fill-rule:evenodd;clip-rule:evenodd;stroke-linejoin:round;stroke-miterlimit:2" viewBox="0 0 18 18"><path d="M8.517 0c-2.311 0-2.602.011-3.51.051-.908.043-1.527.185-2.069.396a4.153 4.153 0 0 0-1.508.983c-.434.425-.77.94-.983 1.508-.211.541-.354 1.161-.396 2.066-.04.91-.051 1.2-.051 3.514 0 2.313.011 2.602.051 3.51.043.908.185 1.526.396 2.068.218.56.509 1.035.983 1.509.473.473.947.765 1.507.982.543.211 1.161.355 2.068.396.909.041 1.199.051 3.512.051 2.314 0 2.602-.01 3.511-.051.906-.042 1.527-.185 2.069-.396a4.163 4.163 0 0 0 1.508-.982c.473-.474.764-.949.982-1.509.21-.542.354-1.16.396-2.068.041-.908.051-1.197.051-3.511 0-2.313-.01-2.603-.051-3.512-.042-.906-.186-1.526-.396-2.067a4.15 4.15 0 0 0-.982-1.508 4.148 4.148 0 0 0-1.509-.983c-.543-.211-1.163-.354-2.069-.396C11.118.011 10.83 0 8.515 0h.002Zm-.763 1.535h.764c2.274 0 2.544.008 3.441.049.831.037 1.282.177 1.582.293.397.154.682.34.98.638.298.298.482.581.636.979.118.299.256.751.293 1.581.042.898.05 1.167.05 3.44 0 2.273-.008 2.544-.05 3.441-.037.831-.176 1.281-.293 1.581a2.664 2.664 0 0 1-.637.979 2.63 2.63 0 0 1-.98.636c-.298.117-.749.256-1.581.294-.897.04-1.167.05-3.441.05s-2.544-.01-3.442-.05c-.83-.038-1.281-.177-1.581-.294a2.661 2.661 0 0 1-.979-.636 2.673 2.673 0 0 1-.639-.98c-.116-.299-.256-.751-.293-1.581-.04-.897-.049-1.167-.049-3.442 0-2.275.009-2.542.049-3.44.039-.83.177-1.282.294-1.582.154-.397.34-.681.638-.979.298-.299.581-.483.979-.637.3-.117.751-.256 1.581-.294.786-.036 1.09-.047 2.678-.048v.002Zm5.31 1.414c-.56 0-1.022.461-1.022 1.022 0 .561.462 1.022 1.022 1.022.561 0 1.022-.461 1.022-1.022 0-.561-.461-1.022-1.022-1.022M8.518 4.144l-.068-.001c-2.4 0-4.375 1.975-4.375 4.375s1.975 4.374 4.375 4.374h.068c2.374-.037 4.307-2 4.307-4.374 0-2.374-1.933-4.337-4.307-4.374m0 1.534a2.853 2.853 0 0 1 2.84 2.839 2.854 2.854 0 0 1-2.84 2.84 2.853 2.853 0 0 1-2.839-2.84 2.853 2.853 0 0 1 2.839-2.839" style="fill:#fff;fill-rule:nonzero"/></svg>