<svg xmlns="http://www.w3.org/2000/svg" xml:space="preserve" style="fill-rule:evenodd;clip-rule:evenodd;stroke-linejoin:round;stroke-miterlimit:2" viewBox="0 0 54 44"><path d="M0 43.101V35.02h5.388V5.388c0-1.482.527-2.75 1.582-3.805C8.025.528 9.294 0 10.775 0h40.408v5.388H10.775V35.02h16.163v8.081H0Zm35.02 0c-.763 0-1.403-.258-1.92-.774-.516-.516-.774-1.156-.774-1.919V13.469c0-.763.258-1.403.774-1.919.517-.517 1.157-.775 1.92-.775h16.163c.763 0 1.403.258 1.919.775.517.516.775 1.156.775 1.919v26.939c0 .763-.258 1.403-.775 1.919-.516.516-1.156.774-1.919.774H35.02Zm2.694-8.081h10.775V16.163H37.714V35.02Zm0 0h10.775-10.775Z" style="fill:#fff;fill-rule:nonzero"/></svg>