<?xml version="1.0" encoding="UTF-8" standalone="no"?><!DOCTYPE svg PUBLIC "-//W3C//DTD SVG 1.1//EN" "http://www.w3.org/Graphics/SVG/1.1/DTD/svg11.dtd"><svg width="100%" height="100%" viewBox="0 0 16 16" version="1.1" xmlns="http://www.w3.org/2000/svg" xmlns:xlink="http://www.w3.org/1999/xlink" xml:space="preserve" xmlns:serif="http://www.serif.com/" style="fill-rule:evenodd;clip-rule:evenodd;stroke-linejoin:round;stroke-miterlimit:2;"><path d="M15.793,10.811c-1.274,3.053 -4.273,5.051 -7.581,5.051c-4.536,0 -8.212,-3.676 -8.212,-8.211c-0,-3.309 1.998,-6.308 5.051,-7.582c0.337,-0.14 0.725,-0.063 0.982,0.194c0.258,0.258 0.335,0.646 0.194,0.982c-0.317,0.76 -0.491,1.593 -0.491,2.468c-0,3.542 2.871,6.414 6.413,6.414l0.001,-0c0.847,0.001 1.686,-0.167 2.467,-0.492c0.337,-0.14 0.724,-0.064 0.982,0.194c0.258,0.258 0.334,0.645 0.194,0.982Zm-2.758,1.067c-0.294,0.031 -0.59,0.047 -0.887,0.047c-4.535,-0.001 -8.21,-3.677 -8.21,-8.212c-0,-0.299 0.016,-0.595 0.047,-0.886c-1.364,1.198 -2.187,2.947 -2.187,4.824c0,3.542 2.871,6.413 6.414,6.413c1.876,0 3.625,-0.823 4.823,-2.186Z" style="fill:rgb(0,36,59);"/></svg>