<svg xmlns="http://www.w3.org/2000/svg" xml:space="preserve" style="fill-rule:evenodd;clip-rule:evenodd;stroke-linejoin:round;stroke-miterlimit:2" viewBox="0 0 14 14"><path d="M1.3 3.9h9.101V2.6H1.3v1.3Zm0 0V2.6v1.3Zm0 9.102c-.357 0-.663-.128-.918-.382A1.252 1.252 0 0 1 0 11.701V2.6c0-.357.127-.663.382-.918S.943 1.3 1.3 1.3h.65V0h1.3v1.3h5.201V0h1.3v1.3h.65c.358 0 .664.127.919.382.254.255.381.561.381.918v3.69a4.421 4.421 0 0 0-1.3-.391v-.698H1.3v6.5h4.096c.076.239.165.466.268.683.103.217.225.423.365.618H1.3Zm8.451.65a3.13 3.13 0 0 1-2.299-.951 3.132 3.132 0 0 1-.951-2.3c0-.899.317-1.666.951-2.299a3.13 3.13 0 0 1 2.299-.951c.899 0 1.666.317 2.3.951.634.633.951 1.4.951 2.299 0 .9-.317 1.666-.951 2.3a3.134 3.134 0 0 1-2.3.951m1.089-1.707.455-.455-1.219-1.219v-1.82h-.65v2.08l1.414 1.414Z" style="fill:#fff;fill-rule:nonzero"/></svg>