<svg xmlns="http://www.w3.org/2000/svg" xml:space="preserve" style="fill-rule:evenodd;clip-rule:evenodd;stroke-linejoin:round;stroke-miterlimit:2" viewBox="0 0 12 15"><path d="M6 7.5c.413 0 .766-.147 1.059-.441.294-.293.441-.647.441-1.059 0-.413-.147-.766-.441-1.059A1.441 1.441 0 0 0 6 4.5c-.412 0-.766.147-1.059.441A1.441 1.441 0 0 0 4.5 6c0 .412.147.766.441 1.059.293.294.647.441 1.059.441m0 5.513c1.525-1.4 2.656-2.672 3.394-3.816.737-1.144 1.106-2.159 1.106-3.047 0-1.362-.434-2.478-1.303-3.347C8.328 1.934 7.263 1.5 6 1.5c-1.262 0-2.328.434-3.197 1.303C1.934 3.672 1.5 4.788 1.5 6.15c0 .888.369 1.903 1.106 3.047.738 1.144 1.869 2.416 3.394 3.816M6 15c-2.012-1.712-3.516-3.303-4.509-4.772C.497 8.759 0 7.4 0 6.15c0-1.875.603-3.369 1.809-4.481C3.016.556 4.413 0 6 0c1.588 0 2.984.556 4.191 1.669C11.397 2.781 12 4.275 12 6.15c0 1.25-.497 2.609-1.491 4.078C9.516 11.697 8.013 13.288 6 15" style="fill:#fff;fill-rule:nonzero"/></svg>