<svg xmlns="http://www.w3.org/2000/svg" xml:space="preserve" style="fill-rule:evenodd;clip-rule:evenodd;stroke-linejoin:round;stroke-miterlimit:2" viewBox="0 0 56 46"><path d="m9.095 3.336-.001-.001.173-.19-.172.191Zm.691-.125-.34-.084.341.083-.001.001ZM4.599 18.202l-.227-.352-.419.159-.407-.248-.133-.558-.808-.95-.017-.401-.652-.075-.133-.192-.481.219-.28-.815-.236-.034.183-.353-.049-.754-.032-.349-.236-.144.601-.634-.357-.982-.482-.281L0 9.473l3.184-1.782 4.49-3.12L9.229 3.9l-.204-.487.07-.077.225.28.205-.131-.252.318.145-.12.023.252.1-.284.142.094-.097-.156.242.062-.104-.35-.11.071.172-.161.018.004.073.447 2.036-.611.23.787-.364.44.247.3-.129.09.202.534.68.688 1.426-.027-.168-.949.321.072.357-.249.285.182.131-.44 1.508.693 1.186.291.261.179-.064.937.971.076.418-.274-.006.522.589-.453.113.179.327-.094.819-.665.667.028 1.54-1.157.997-1.344.002.002-.302-.487 1.714-.073.112.433.588.076.697-.206-.685-1.3.182-.472-.267-.129 1.369-.724.94-.095.135.21-.249.544.078.601.576-.215.928.224.42-.085-.026-.418.375-.171.859-1.099.461-.013.822.444.065.521-.309.278.106.563.235-.018-.162.131-.883-.347-.023.391 1.345.125.309-.19.463.548 1.207-1.177.047-.541.318-.398.241.315.477.029.379.906-.471.89.87 1.053.039.756.406.123.54-.251.582.385-.212.85.166.15-.001.001 1.417-.037.144-.281 1.033.276.99-.878.441.116.273.402.321.302.058.976 1.307.554.094.292 1.543.032.169.735.676-.369.438.546-.655.608.323.459-.522.15.063.69-.378-.028-.226.654.261.245-.143.581-.654.813.111.169.327-.11.091.222-.498.933-.335-.025-.306.669-.486.217.064 1.006.561.35.079.003.115.669-.265.552.822-.055.414-.502.226.318.361.28.526-.194.072.231.511-.338.1.317.359.102.642-.268.279.212.574-.039.312.25-.029.583.088-.216 1.027.136.96 1.617-.204.189.215.243-.098.134.298-.15 1.025.148-.366.849-.263-.025-.711.74.033.347.255.117-.109.234.28.129.261.58.638-.224 1.16.374-.147.6.453.178.064.417-.509 1.273.953 1.011-.043.289-.606.183-.018.232-.418-.421-.362.085-.393 1.164-.935.223-.263.439-.297.052-.137.324.346.858-.646.164-.188.488.303.263-.208.277-.388-.135.182-.292-.17-.392-.464-.11-.022.338-.272.067-.431-.241-.095-.438-.839.231-.082.929-.92.44-.139.766-.478.422.219.276-.141.402-.588.365.252.713-.437.394-.446.056-.188.996-.396.385.704.456-.138.259-.28-.113.076.346-.196.079.164.138-.257.248.2 1.009.49-.096.602 1.073-.057.551.553-.071.297.372-.297.723.656.283-.066.592-.275.047-.178.598-.378.277.056.194.261-.013.002.304-.425.462-.354.171-.824-.369-.193.507-1.39-.278-.493.506-.062.473-.28-.342-.512-.162-.217.293-.811.175-.184.244-.323-.456.245-.202-.018-.269-.341-.287.188-.335-.245-.06-.13-.569-1.163-.776-.147.31-.359.128-.111-.407.365-.545-.802-.857-.135-.094-.344.254-.541-.231-.567.053-.059-.498-.504.051-.48-1.101-.433.026-.811-.462-.183-.397-.386-.033-.575.321-1.121-.134.336-.591-.4-1.053.197-.007.397-.95-.591-.866-.815-.222-.02-.237.048-.307.365-.264.022-.704.31-.278-.304-.604.26-.049.188-.773.302.306-.063-.713.413-.381-.281-.365-.596-.029-.127-.319-.921.715-.182.559-.82.598-.196.415.282.346-.224.567.126.673-1.367.197-.819.392-.24.417-1.31.198-.002.003-1.183-.256-.603-.36-1.649.294-.042-.316-.718-.192.29-.485-.375-.414.346-.644.479-.027.534-.446-.476-.811.04-.62-.675-.012.017.158-.38-.162.384-.665-.062-1.121.319-.074.698-.825-.183-.435-.442-.074-.225-.312-.181.321.251.376-.427.007-.3-1.026-.301-.235-.285.068-.749-1.086-.543.369-.194-.122-.075.153-.012-.162-.947.485-.751-.567-.346-.011-.171.201-.097-.239-.87.07-.199.178-.06.678-.3-.165.127.313-.14.036-.499-.667-.221-.788.24-.753-.217-1.207-.752-.892-.366.125-.211-.225-.984.3-.066-.259.33-.564-.637-.218-.396.605-.149-.088-.881.435-.211-.29-1.01-.461-.182-.324.001-1.282-.573-1.424.376-.418-.179-.291.113-.283-.978-.507.089-.246-.312-.489.613-.233-.001-.004-.613.232-.393-.772-.355.082-.201-.171-.41.495-.338-.181-.377.251-.207-.098.152-.16h-.002l-.151.159-.609.505-.54.153.092.3-.523.869-.684-.317Zm.101-.132ZM24.923 3.665l.003.002-.003-.002Zm20.464 12.314-.462-.032-.001.001.463.031Zm-.036 1.051.458.244.07.009.199-.184.183.136.02.064h.553l.522.749.573-.071.314.164.404-.578-.404.578-.314-.164-.573.07-.522-.749h-.553l-.02-.063-.183-.137-.199.184-.07-.009-.458-.243ZM34.772 1.138l-.223.106.011.393-.329-.143.054-.248.139.148.122-.18-.117-.079.343.003Z" style="fill:#fff"/></svg>