<svg xmlns="http://www.w3.org/2000/svg" xml:space="preserve" style="fill-rule:evenodd;clip-rule:evenodd;stroke-linejoin:round;stroke-miterlimit:2" viewBox="0 0 57 46"><path d="M24.044 32.723c1.138 1.138 2.608 1.695 4.41 1.671 1.803-.023 3.13-.675 3.984-1.956L48.373 8.536 24.471 24.471c-1.281.854-1.956 2.158-2.028 3.912-.071 1.755.463 3.201 1.601 4.34M28.454 0c2.799 0 5.49.391 8.074 1.174a26.193 26.193 0 0 1 7.292 3.521L38.414 8.11a21.728 21.728 0 0 0-9.96-2.419c-6.307 0-11.678 2.217-16.112 6.651-4.434 4.434-6.651 9.805-6.651 16.112 0 1.992.273 3.96.818 5.905a23.3 23.3 0 0 0 2.312 5.477h39.267a20.758 20.758 0 0 0 2.383-5.619 24.28 24.28 0 0 0 .747-6.047c0-1.707-.201-3.367-.605-4.98a20.635 20.635 0 0 0-1.814-4.695l3.415-5.406a31.549 31.549 0 0 1 3.379 7.114 26.265 26.265 0 0 1 1.316 7.825c.047 2.703-.261 5.287-.925 7.754a29.472 29.472 0 0 1-2.916 7.042 5.396 5.396 0 0 1-2.134 1.992 6.033 6.033 0 0 1-2.846.711H8.821a6.033 6.033 0 0 1-2.846-.711 5.396 5.396 0 0 1-2.134-1.992 29.032 29.032 0 0 1-2.845-6.793C.332 33.636 0 31.11 0 28.454c0-3.936.747-7.623 2.241-11.061 1.494-3.438 3.533-6.45 6.118-9.034 2.584-2.585 5.607-4.624 9.069-6.118C20.89.747 24.566 0 28.454 0" style="fill:#fff;fill-rule:nonzero"/></svg>