<svg xmlns="http://www.w3.org/2000/svg" xml:space="preserve" style="fill-rule:evenodd;clip-rule:evenodd;stroke-linejoin:round;stroke-miterlimit:2" viewBox="0 0 14 14"><path d="M6.75 7.5V.75c0-.213.072-.391.216-.534A.724.724 0 0 1 7.5 0h5.25c.213 0 .391.072.534.216A.722.722 0 0 1 13.5.75V4.5a.722.722 0 0 1-.216.534.722.722 0 0 1-.534.216H9L6.75 7.5Zm1.5-3.75H12V1.5H8.25v2.25Zm0 0V1.5v2.25Zm4.463 9.75c-1.563 0-3.107-.341-4.632-1.022-1.525-.681-2.912-1.647-4.162-2.897-1.25-1.25-2.216-2.637-2.897-4.162C.341 3.894 0 2.35 0 .787 0 .563.075.375.225.225A.762.762 0 0 1 .787 0h3.038c.175 0 .331.059.469.178A.686.686 0 0 1 4.537.6l.488 2.625c.025.2.019.369-.019.506a.78.78 0 0 1-.206.356L2.981 5.925c.25.462.547.909.891 1.341.344.431.722.847 1.134 1.246.388.388.794.747 1.219 1.079.425.331.875.634 1.35.909l1.762-1.763a1.07 1.07 0 0 1 .441-.253 1.21 1.21 0 0 1 .534-.047l2.588.525c.175.05.319.141.431.272a.66.66 0 0 1 .169.441v3.037a.764.764 0 0 1-.225.563.764.764 0 0 1-.563.225m-10.443-9 1.237-1.238L3.187 1.5H1.519c.062.512.15 1.019.262 1.519.113.5.275.993.488 1.481m6.712 6.712c.488.213.985.382 1.491.507a9.083 9.083 0 0 0 1.528.243v-1.65l-1.763-.356-1.256 1.256Z" style="fill:#fff;fill-rule:nonzero"/></svg>